<?xml version="1.0" encoding="utf-8"?>
<!-- Generator: Adobe Illustrator 16.0.0, SVG Export Plug-In . SVG Version: 6.00 Build 0)  -->
<!DOCTYPE svg PUBLIC "-//W3C//DTD SVG 1.1//EN" "http://www.w3.org/Graphics/SVG/1.1/DTD/svg11.dtd">
<svg version="1.1" id="Layer_1" xmlns="http://www.w3.org/2000/svg" xmlns:xlink="http://www.w3.org/1999/xlink" x="0px" y="0px"
	 width="3571.422px" height="1769.283px" viewBox="0 0 3571.422 1769.283" enable-background="new 0 0 3571.422 1769.283"
	 xml:space="preserve">
<symbol  id="Node" viewBox="-18 -18 36 36">
	<path fill="#FFFFFF" stroke="#010101" stroke-width="6" stroke-miterlimit="10" d="M15,0c0-8.284-6.716-15-15-15S-15-8.284-15,0
		s6.716,15,15,15S15,8.284,15,0z"/>
</symbol>
<pattern  x="1488.211" y="1305.142" width="272.238" height="272.243" patternUnits="userSpaceOnUse" id="SVGID_349_" viewBox="28.406 -300.656 272.238 272.243" overflow="visible">
	<g>
		<polygon fill="none" points="28.406,-28.413 300.644,-28.413 300.644,-300.656 28.406,-300.656 		"/>
		<g>
			<polygon fill="none" points="28.406,-300.656 300.644,-300.656 300.644,-28.413 28.406,-28.413 			"/>
			<g>
				<polygon fill="none" points="28.406,-28.413 300.644,-28.413 300.644,-300.656 28.406,-300.656 				"/>
				<g>
					<polygon fill="none" points="28.406,-300.656 300.644,-300.656 300.644,-28.413 28.406,-28.413 					"/>
					<g>
						<polygon fill="none" points="28.406,-28.413 300.644,-28.413 300.644,-300.656 28.406,-300.656 						"/>
						<g>
							<polygon fill="none" points="28.406,-300.652 300.644,-300.652 300.644,-28.412 28.406,-28.412 							"/>
							<g>
								<polygon fill="none" points="28.406,-28.412 300.644,-28.412 300.644,-300.652 28.406,-300.652 								"/>
								<g>
									<polygon fill="none" points="28.406,-300.652 300.645,-300.652 300.645,-28.41 28.406,-28.41 									"/>
									<g>
										<polygon fill="none" points="28.406,-300.652 300.645,-300.652 300.645,-28.41 28.406,-28.41 										"/>
										<g>
											<g>
												<g>
													<g>
														<g>
															<g>
																<g>
																	<g>
																		<g>
																			<defs>
																				<rect id="SVGID_1_" x="28.406" y="-300.655" width="272.238" height="272.243"/>
																			</defs>
																			<clipPath id="SVGID_2_">
																				<use xlink:href="#SVGID_1_"  overflow="visible"/>
																			</clipPath>
																			
																				<line clip-path="url(#SVGID_2_)" fill="none" stroke="#231F20" stroke-width="0.3" stroke-linejoin="round" x1="0.106" y1="-68.17" x2="68.168" y2="-0.105"/>
																		</g>
																	</g>
																</g>
															</g>
														</g>
													</g>
												</g>
											</g>
											<g>
												<g>
													<g>
														<g>
															<g>
																<g>
																	<g>
																		<g>
																			<defs>
																				<rect id="SVGID_3_" x="28.406" y="-300.655" width="272.238" height="272.243"/>
																			</defs>
																			<clipPath id="SVGID_4_">
																				<use xlink:href="#SVGID_3_"  overflow="visible"/>
																			</clipPath>
																			
																				<line clip-path="url(#SVGID_4_)" fill="none" stroke="#231F20" stroke-width="0.3" stroke-linejoin="round" x1="0.106" y1="-90.855" x2="90.854" y2="-0.105"/>
																		</g>
																	</g>
																</g>
															</g>
														</g>
													</g>
												</g>
											</g>
											<g>
												<g>
													<g>
														<g>
															<g>
																<g>
																	<g>
																		<g>
																			<defs>
																				<rect id="SVGID_5_" x="28.406" y="-300.655" width="272.238" height="272.243"/>
																			</defs>
																			<clipPath id="SVGID_6_">
																				<use xlink:href="#SVGID_5_"  overflow="visible"/>
																			</clipPath>
																			
																				<line clip-path="url(#SVGID_6_)" fill="none" stroke="#231F20" stroke-width="0.3" stroke-linejoin="round" x1="0.106" y1="-113.543" x2="113.541" y2="-0.105"/>
																		</g>
																	</g>
																</g>
															</g>
														</g>
													</g>
												</g>
											</g>
											<g>
												<g>
													<g>
														<g>
															<g>
																<g>
																	<g>
																		<g>
																			<defs>
																				<rect id="SVGID_7_" x="28.406" y="-300.655" width="272.238" height="272.243"/>
																			</defs>
																			<clipPath id="SVGID_8_">
																				<use xlink:href="#SVGID_7_"  overflow="visible"/>
																			</clipPath>
																			
																				<line clip-path="url(#SVGID_8_)" fill="none" stroke="#231F20" stroke-width="0.3" stroke-linejoin="round" x1="0.106" y1="-136.23" x2="136.229" y2="-0.105"/>
																		</g>
																	</g>
																</g>
															</g>
														</g>
													</g>
												</g>
											</g>
											<g>
												<g>
													<g>
														<g>
															<g>
																<g>
																	<g>
																		<g>
																			<defs>
																				<rect id="SVGID_9_" x="28.406" y="-300.655" width="272.238" height="272.243"/>
																			</defs>
																			<clipPath id="SVGID_10_">
																				<use xlink:href="#SVGID_9_"  overflow="visible"/>
																			</clipPath>
																			
																				<line clip-path="url(#SVGID_10_)" fill="none" stroke="#231F20" stroke-width="0.3" stroke-linejoin="round" x1="0.106" y1="-158.918" x2="158.915" y2="-0.105"/>
																		</g>
																	</g>
																</g>
															</g>
														</g>
													</g>
												</g>
											</g>
											<g>
												<g>
													<g>
														<g>
															<g>
																<g>
																	<g>
																		<g>
																			<defs>
																				<rect id="SVGID_11_" x="28.406" y="-300.655" width="272.238" height="272.243"/>
																			</defs>
																			<clipPath id="SVGID_12_">
																				<use xlink:href="#SVGID_11_"  overflow="visible"/>
																			</clipPath>
																			
																				<line clip-path="url(#SVGID_12_)" fill="none" stroke="#231F20" stroke-width="0.3" stroke-linejoin="round" x1="0.106" y1="-181.605" x2="181.602" y2="-0.105"/>
																		</g>
																	</g>
																</g>
															</g>
														</g>
													</g>
												</g>
											</g>
											<g>
												<g>
													<g>
														<g>
															<g>
																<g>
																	<g>
																		<g>
																			<defs>
																				<rect id="SVGID_13_" x="28.406" y="-300.655" width="272.238" height="272.243"/>
																			</defs>
																			<clipPath id="SVGID_14_">
																				<use xlink:href="#SVGID_13_"  overflow="visible"/>
																			</clipPath>
																			
																				<line clip-path="url(#SVGID_14_)" fill="none" stroke="#231F20" stroke-width="0.3" stroke-linejoin="round" x1="0.106" y1="-204.291" x2="204.29" y2="-0.105"/>
																		</g>
																	</g>
																</g>
															</g>
														</g>
													</g>
												</g>
											</g>
											<g>
												<g>
													<g>
														<g>
															<g>
																<g>
																	<g>
																		<g>
																			<defs>
																				<rect id="SVGID_15_" x="28.406" y="-300.655" width="272.238" height="272.243"/>
																			</defs>
																			<clipPath id="SVGID_16_">
																				<use xlink:href="#SVGID_15_"  overflow="visible"/>
																			</clipPath>
																			
																				<line clip-path="url(#SVGID_16_)" fill="none" stroke="#231F20" stroke-width="0.3" stroke-linejoin="round" x1="0.106" y1="-226.98" x2="226.976" y2="-0.105"/>
																		</g>
																	</g>
																</g>
															</g>
														</g>
													</g>
												</g>
											</g>
											<g>
												<g>
													<g>
														<g>
															<g>
																<g>
																	<g>
																		<g>
																			<defs>
																				<rect id="SVGID_17_" x="28.406" y="-300.655" width="272.238" height="272.243"/>
																			</defs>
																			<clipPath id="SVGID_18_">
																				<use xlink:href="#SVGID_17_"  overflow="visible"/>
																			</clipPath>
																			
																				<line clip-path="url(#SVGID_18_)" fill="none" stroke="#231F20" stroke-width="0.3" stroke-linejoin="round" x1="0.106" y1="-249.664" x2="249.663" y2="-0.105"/>
																		</g>
																	</g>
																</g>
															</g>
														</g>
													</g>
												</g>
											</g>
											<g>
												<g>
													<g>
														<g>
															<g>
																<g>
																	<g>
																		<g>
																			<defs>
																				<rect id="SVGID_19_" x="28.406" y="-300.655" width="272.238" height="272.243"/>
																			</defs>
																			<clipPath id="SVGID_20_">
																				<use xlink:href="#SVGID_19_"  overflow="visible"/>
																			</clipPath>
																			
																				<line clip-path="url(#SVGID_20_)" fill="none" stroke="#231F20" stroke-width="0.3" stroke-linejoin="round" x1="0.106" y1="-272.355" x2="272.351" y2="-0.105"/>
																		</g>
																	</g>
																</g>
															</g>
														</g>
													</g>
												</g>
											</g>
											<g>
												<g>
													<g>
														<g>
															<g>
																<g>
																	<g>
																		<g>
																			<defs>
																				<rect id="SVGID_21_" x="28.406" y="-300.655" width="272.238" height="272.243"/>
																			</defs>
																			<clipPath id="SVGID_22_">
																				<use xlink:href="#SVGID_21_"  overflow="visible"/>
																			</clipPath>
																			
																				<line clip-path="url(#SVGID_22_)" fill="none" stroke="#231F20" stroke-width="0.3" stroke-linejoin="round" x1="0.106" y1="-295.037" x2="295.036" y2="-0.105"/>
																		</g>
																	</g>
																</g>
															</g>
														</g>
													</g>
												</g>
											</g>
											<g>
												<g>
													<g>
														<g>
															<g>
																<g>
																	<g>
																		<g>
																			<defs>
																				<rect id="SVGID_23_" x="28.406" y="-300.655" width="272.238" height="272.243"/>
																			</defs>
																			<clipPath id="SVGID_24_">
																				<use xlink:href="#SVGID_23_"  overflow="visible"/>
																			</clipPath>
																			
																				<line clip-path="url(#SVGID_24_)" fill="none" stroke="#231F20" stroke-width="0.3" stroke-linejoin="round" x1="0.106" y1="-317.73" x2="317.724" y2="-0.105"/>
																		</g>
																	</g>
																</g>
															</g>
														</g>
													</g>
												</g>
											</g>
											<g>
												<g>
													<g>
														<g>
															<g>
																<g>
																	<g>
																		<g>
																			<defs>
																				<rect id="SVGID_25_" x="28.406" y="-300.655" width="272.238" height="272.243"/>
																			</defs>
																			<clipPath id="SVGID_26_">
																				<use xlink:href="#SVGID_25_"  overflow="visible"/>
																			</clipPath>
																			
																				<line clip-path="url(#SVGID_26_)" fill="none" stroke="#231F20" stroke-width="0.3" stroke-linejoin="round" x1="22.794" y1="-317.73" x2="317.724" y2="-22.797"/>
																		</g>
																	</g>
																</g>
															</g>
														</g>
													</g>
												</g>
											</g>
											<g>
												<g>
													<g>
														<g>
															<g>
																<g>
																	<g>
																		<g>
																			<defs>
																				<rect id="SVGID_27_" x="28.406" y="-300.655" width="272.238" height="272.243"/>
																			</defs>
																			<clipPath id="SVGID_28_">
																				<use xlink:href="#SVGID_27_"  overflow="visible"/>
																			</clipPath>
																			
																				<line clip-path="url(#SVGID_28_)" fill="none" stroke="#231F20" stroke-width="0.3" stroke-linejoin="round" x1="45.479" y1="-317.73" x2="317.724" y2="-45.48"/>
																		</g>
																	</g>
																</g>
															</g>
														</g>
													</g>
												</g>
											</g>
											<g>
												<g>
													<g>
														<g>
															<g>
																<g>
																	<g>
																		<g>
																			<defs>
																				<rect id="SVGID_29_" x="28.406" y="-300.655" width="272.238" height="272.243"/>
																			</defs>
																			<clipPath id="SVGID_30_">
																				<use xlink:href="#SVGID_29_"  overflow="visible"/>
																			</clipPath>
																			
																				<line clip-path="url(#SVGID_30_)" fill="none" stroke="#231F20" stroke-width="0.3" stroke-linejoin="round" x1="68.168" y1="-317.73" x2="317.724" y2="-68.17"/>
																		</g>
																	</g>
																</g>
															</g>
														</g>
													</g>
												</g>
											</g>
											<g>
												<g>
													<g>
														<g>
															<g>
																<g>
																	<g>
																		<g>
																			<defs>
																				<rect id="SVGID_31_" x="28.406" y="-300.655" width="272.238" height="272.243"/>
																			</defs>
																			<clipPath id="SVGID_32_">
																				<use xlink:href="#SVGID_31_"  overflow="visible"/>
																			</clipPath>
																			
																				<line clip-path="url(#SVGID_32_)" fill="none" stroke="#231F20" stroke-width="0.3" stroke-linejoin="round" x1="90.854" y1="-317.73" x2="317.724" y2="-90.855"/>
																		</g>
																	</g>
																</g>
															</g>
														</g>
													</g>
												</g>
											</g>
											<g>
												<g>
													<g>
														<g>
															<g>
																<g>
																	<g>
																		<g>
																			<defs>
																				<rect id="SVGID_33_" x="28.406" y="-300.655" width="272.238" height="272.243"/>
																			</defs>
																			<clipPath id="SVGID_34_">
																				<use xlink:href="#SVGID_33_"  overflow="visible"/>
																			</clipPath>
																			
																				<line clip-path="url(#SVGID_34_)" fill="none" stroke="#231F20" stroke-width="0.3" stroke-linejoin="round" x1="113.541" y1="-317.73" x2="317.724" y2="-113.543"/>
																		</g>
																	</g>
																</g>
															</g>
														</g>
													</g>
												</g>
											</g>
											<g>
												<g>
													<g>
														<g>
															<g>
																<g>
																	<g>
																		<g>
																			<defs>
																				<rect id="SVGID_35_" x="28.406" y="-300.655" width="272.238" height="272.243"/>
																			</defs>
																			<clipPath id="SVGID_36_">
																				<use xlink:href="#SVGID_35_"  overflow="visible"/>
																			</clipPath>
																			
																				<line clip-path="url(#SVGID_36_)" fill="none" stroke="#231F20" stroke-width="0.3" stroke-linejoin="round" x1="136.229" y1="-317.73" x2="317.724" y2="-136.23"/>
																		</g>
																	</g>
																</g>
															</g>
														</g>
													</g>
												</g>
											</g>
											<g>
												<g>
													<g>
														<g>
															<g>
																<g>
																	<g>
																		<g>
																			<defs>
																				<rect id="SVGID_37_" x="28.406" y="-300.655" width="272.238" height="272.243"/>
																			</defs>
																			<clipPath id="SVGID_38_">
																				<use xlink:href="#SVGID_37_"  overflow="visible"/>
																			</clipPath>
																			
																				<line clip-path="url(#SVGID_38_)" fill="none" stroke="#231F20" stroke-width="0.3" stroke-linejoin="round" x1="158.915" y1="-317.73" x2="317.724" y2="-158.918"/>
																		</g>
																	</g>
																</g>
															</g>
														</g>
													</g>
												</g>
											</g>
											<g>
												<g>
													<g>
														<g>
															<g>
																<g>
																	<g>
																		<g>
																			<defs>
																				<rect id="SVGID_39_" x="28.406" y="-300.655" width="272.238" height="272.243"/>
																			</defs>
																			<clipPath id="SVGID_40_">
																				<use xlink:href="#SVGID_39_"  overflow="visible"/>
																			</clipPath>
																			
																				<line clip-path="url(#SVGID_40_)" fill="none" stroke="#231F20" stroke-width="0.3" stroke-linejoin="round" x1="181.602" y1="-317.73" x2="317.724" y2="-181.605"/>
																		</g>
																	</g>
																</g>
															</g>
														</g>
													</g>
												</g>
											</g>
											<g>
												<g>
													<g>
														<g>
															<g>
																<g>
																	<g>
																		<g>
																			<defs>
																				<rect id="SVGID_41_" x="28.406" y="-300.655" width="272.238" height="272.243"/>
																			</defs>
																			<clipPath id="SVGID_42_">
																				<use xlink:href="#SVGID_41_"  overflow="visible"/>
																			</clipPath>
																			
																				<line clip-path="url(#SVGID_42_)" fill="none" stroke="#231F20" stroke-width="0.3" stroke-linejoin="round" x1="204.29" y1="-317.73" x2="317.724" y2="-204.291"/>
																		</g>
																	</g>
																</g>
															</g>
														</g>
													</g>
												</g>
											</g>
											<g>
												<g>
													<g>
														<g>
															<g>
																<g>
																	<g>
																		<g>
																			<defs>
																				<rect id="SVGID_43_" x="28.406" y="-300.655" width="272.238" height="272.243"/>
																			</defs>
																			<clipPath id="SVGID_44_">
																				<use xlink:href="#SVGID_43_"  overflow="visible"/>
																			</clipPath>
																			
																				<line clip-path="url(#SVGID_44_)" fill="none" stroke="#231F20" stroke-width="0.3" stroke-linejoin="round" x1="226.976" y1="-317.73" x2="317.724" y2="-226.98"/>
																		</g>
																	</g>
																</g>
															</g>
														</g>
													</g>
												</g>
											</g>
											<g>
												<g>
													<g>
														<g>
															<g>
																<g>
																	<g>
																		<g>
																			<defs>
																				<rect id="SVGID_45_" x="28.406" y="-300.655" width="272.238" height="272.243"/>
																			</defs>
																			<clipPath id="SVGID_46_">
																				<use xlink:href="#SVGID_45_"  overflow="visible"/>
																			</clipPath>
																			
																				<line clip-path="url(#SVGID_46_)" fill="none" stroke="#231F20" stroke-width="0.3" stroke-linejoin="round" x1="249.663" y1="-317.73" x2="317.724" y2="-249.664"/>
																		</g>
																	</g>
																</g>
															</g>
														</g>
													</g>
												</g>
											</g>
											<g>
												<g>
													<g>
														<g>
															<g>
																<g>
																	<g>
																		<g>
																			<defs>
																				<rect id="SVGID_47_" x="28.406" y="-300.655" width="272.238" height="272.243"/>
																			</defs>
																			<clipPath id="SVGID_48_">
																				<use xlink:href="#SVGID_47_"  overflow="visible"/>
																			</clipPath>
																			
																				<line clip-path="url(#SVGID_48_)" fill="none" stroke="#231F20" stroke-width="0.3" stroke-linejoin="round" x1="272.351" y1="-317.73" x2="317.724" y2="-272.355"/>
																		</g>
																	</g>
																</g>
															</g>
														</g>
													</g>
												</g>
											</g>
										</g>
									</g>
								</g>
							</g>
						</g>
					</g>
				</g>
			</g>
		</g>
	</g>
</pattern>
<path fill="#D1D2D3" d="M38.184,1571.125h347.492H38.184z"/>
<line fill="none" stroke="#231F20" stroke-miterlimit="10" x1="385.676" y1="1571.125" x2="38.18" y2="1571.125"/>
<polygon fill="#D1D2D3" stroke="#231F20" stroke-width="2" stroke-miterlimit="10" points="385.676,1506.77 385.778,1571.125 
	38.184,1571.125 38.184,1748.893 178.572,1748.893 178.572,1709.914 244.818,1709.914 244.818,1748.893 386.057,1748.893 
	416.704,1748.512 1037.233,1748.512 1037.231,1748.512 1037.233,1748.512 1037.233,1506.77 "/>
<path fill="none" stroke="#010101" stroke-width="2" stroke-miterlimit="10" d="M1024.381,691.682"/>
<path fill="none" stroke="#010101" stroke-width="2" stroke-miterlimit="10" d="M1024.381,748.691"/>
<path fill="none" stroke="#010101" stroke-width="2" stroke-miterlimit="10" d="M1024.381,746.697"/>
<path fill="none" stroke="#010101" stroke-width="2" stroke-miterlimit="10" d="M1024.381,557.727"/>
<polyline fill="none" stroke="#010101" stroke-width="2" stroke-miterlimit="10" points="1359.471,746.697 1458.868,746.697 
	1565.983,746.697 1565.983,558.811 1488.034,558.811 "/>
<line fill="none" stroke="#010101" stroke-width="2" stroke-linecap="square" stroke-miterlimit="10" x1="452.122" y1="557.639" x2="374.504" y2="557.639"/>
<line fill="none" stroke="#010101" stroke-width="2" stroke-linecap="round" stroke-miterlimit="10" x1="1359.471" y1="746.697" x2="374.504" y2="746.697"/>
<path fill="none" stroke="#010101" stroke-width="2" stroke-linecap="round" stroke-miterlimit="10" d="M374.504,557.305v134.414"/>
<use xlink:href="#Node"  width="36" height="36" id="AS1" x="-18" y="-18" transform="matrix(1 0 0 -1 1058.1116 720.25)" overflow="visible"/>
<use xlink:href="#Node"  width="36" height="36" id="AS2" x="-18" y="-18" transform="matrix(1 0 0 -1 1251.0413 720.25)" overflow="visible" enable-background="new    "/>
<use xlink:href="#Node"  width="36" height="36" id="AC2" x="-18" y="-18" transform="matrix(1 0 0 -1 920.3694 720.25)" overflow="visible" enable-background="new    "/>
<use xlink:href="#Node"  width="36" height="36" id="DT_Office" x="-18" y="-18" transform="matrix(1 0 0 -1 480.2034 720.25)" overflow="visible" enable-background="new    "/>
<g>
	<rect x="374.504" y="557.193" fill="none" stroke="#231F20" stroke-miterlimit="10" width="38.975" height="135.377"/>
	<line fill="none" stroke="#231F20" stroke-miterlimit="10" x1="374.504" y1="572.719" x2="413.479" y2="572.719"/>
	<line fill="none" stroke="#231F20" stroke-miterlimit="10" x1="374.504" y1="589.838" x2="413.479" y2="589.838"/>
	<line fill="none" stroke="#231F20" stroke-miterlimit="10" x1="374.504" y1="606.965" x2="413.479" y2="606.965"/>
	<line fill="none" stroke="#231F20" stroke-miterlimit="10" x1="374.504" y1="624.086" x2="413.479" y2="624.086"/>
	<line fill="none" stroke="#231F20" stroke-miterlimit="10" x1="374.504" y1="641.205" x2="413.479" y2="641.205"/>
	<line fill="none" stroke="#231F20" stroke-miterlimit="10" x1="374.504" y1="660.041" x2="413.479" y2="660.041"/>
	<line fill="none" stroke="#231F20" stroke-miterlimit="10" x1="374.504" y1="677.16" x2="413.479" y2="677.16"/>
</g>
<line fill="none" stroke="#231F20" stroke-width="2" stroke-miterlimit="10" x1="244.818" y1="1748.891" x2="1037.233" y2="1748.891"/>
<path fill="#D1D2D3" d="M1037.233,1748.891v-228.556V1748.891z"/>
<line fill="none" stroke="#231F20" stroke-width="2" stroke-miterlimit="10" x1="1037.233" y1="1748.891" x2="1037.233" y2="1520.336"/>
<path fill="#D1D2D3" d="M385.676,1571.125v-50.789V1571.125z"/>
<line fill="none" stroke="#231F20" stroke-miterlimit="10" x1="385.676" y1="1520.336" x2="385.676" y2="1571.125"/>
<path fill="#D1D2D3" d="M38.184,1748.891v-177.766V1748.891z"/>
<line fill="none" stroke="#231F20" stroke-miterlimit="10" x1="38.18" y1="1571.125" x2="38.18" y2="1748.891"/>
<polyline fill="none" stroke="#231F20" stroke-miterlimit="10" points="1037.233,1545.732 896.68,1545.732 896.68,1520.336 "/>
<path fill="none" stroke="#231F20" stroke-miterlimit="10" d="M912.796,1520.336"/>
<path fill="none" stroke="#231F20" stroke-miterlimit="10" d="M912.796,1545.73"/>
<path fill="none" stroke="#231F20" stroke-miterlimit="10" d="M930.575,1520.336"/>
<path fill="none" stroke="#231F20" stroke-miterlimit="10" d="M930.575,1545.73"/>
<path fill="none" stroke="#231F20" stroke-miterlimit="10" d="M948.35,1520.336"/>
<path fill="none" stroke="#231F20" stroke-miterlimit="10" d="M948.35,1545.73"/>
<path fill="none" stroke="#231F20" stroke-miterlimit="10" d="M966.122,1520.336"/>
<path fill="none" stroke="#231F20" stroke-miterlimit="10" d="M966.122,1545.73"/>
<path fill="none" stroke="#231F20" stroke-miterlimit="10" d="M983.901,1520.336"/>
<path fill="none" stroke="#231F20" stroke-miterlimit="10" d="M983.901,1545.73"/>
<path fill="none" stroke="#231F20" stroke-miterlimit="10" d="M1003.454,1520.336"/>
<path fill="none" stroke="#231F20" stroke-miterlimit="10" d="M1003.454,1545.73"/>
<path fill="none" stroke="#231F20" stroke-miterlimit="10" d="M1021.233,1520.336"/>
<path fill="none" stroke="#231F20" stroke-miterlimit="10" d="M1021.233,1545.73"/>
<line fill="none" stroke="#231F20" stroke-width="2" stroke-miterlimit="10" x1="896.678" y1="1545.73" x2="896.678" y2="1748.891"/>
<g>
	<line fill="none" stroke="#231F20" stroke-width="2" stroke-miterlimit="10" x1="2545.479" y1="1" x2="2357.521" y2="1"/>
	<path fill="none" stroke="#231F20" stroke-width="2" stroke-linecap="square" stroke-miterlimit="10" d="M2545.479,716.09"/>
	
		<line fill="none" stroke="#231F20" stroke-width="2" stroke-linecap="square" stroke-miterlimit="10" x1="2357.521" y1="738.525" x2="2596.834" y2="738.525"/>
	<path fill="none" stroke="#231F20" stroke-width="2" stroke-linecap="square" stroke-miterlimit="10" d="M2451.5,738.525"/>
	<path fill="none" stroke="#231F20" stroke-width="2" stroke-miterlimit="10" d="M2357.521,1h239.313v134.58h38.978v166.66v301.219
		h-38.978v135.064"/>
</g>
<g>
	<polygon fill="none" stroke="#231F20" stroke-miterlimit="10" points="2597.834,603.459 2635.811,603.459 2635.811,738.525 
		2596.834,738.525 	"/>
	<line fill="none" stroke="#231F20" stroke-miterlimit="10" x1="2596.834" y1="618.984" x2="2635.811" y2="618.984"/>
	<line fill="none" stroke="#231F20" stroke-miterlimit="10" x1="2596.834" y1="636.104" x2="2635.811" y2="636.104"/>
	<line fill="none" stroke="#231F20" stroke-miterlimit="10" x1="2596.834" y1="653.23" x2="2635.811" y2="653.23"/>
	<line fill="none" stroke="#231F20" stroke-miterlimit="10" x1="2596.834" y1="670.352" x2="2635.811" y2="670.352"/>
	<line fill="none" stroke="#231F20" stroke-miterlimit="10" x1="2596.834" y1="687.471" x2="2635.811" y2="687.471"/>
	<line fill="none" stroke="#231F20" stroke-miterlimit="10" x1="2596.834" y1="706.307" x2="2635.811" y2="706.307"/>
	<line fill="none" stroke="#231F20" stroke-miterlimit="10" x1="2596.834" y1="723.428" x2="2635.811" y2="723.428"/>
</g>
<g>
	<rect x="2596.834" y="1" fill="none" stroke="#231F20" stroke-miterlimit="10" width="38.979" height="134.582"/>
	<line fill="none" stroke="#231F20" stroke-miterlimit="10" x1="2596.834" y1="15.728" x2="2635.811" y2="15.728"/>
	<line fill="none" stroke="#231F20" stroke-miterlimit="10" x1="2596.834" y1="32.848" x2="2635.811" y2="32.848"/>
	<line fill="none" stroke="#231F20" stroke-miterlimit="10" x1="2596.834" y1="49.974" x2="2635.811" y2="49.974"/>
	<line fill="none" stroke="#231F20" stroke-miterlimit="10" x1="2596.834" y1="67.096" x2="2635.811" y2="67.096"/>
	<line fill="none" stroke="#231F20" stroke-miterlimit="10" x1="2596.834" y1="84.215" x2="2635.811" y2="84.215"/>
	<line fill="none" stroke="#231F20" stroke-miterlimit="10" x1="2596.834" y1="103.051" x2="2635.811" y2="103.051"/>
	<line fill="none" stroke="#231F20" stroke-miterlimit="10" x1="2596.834" y1="120.172" x2="2635.811" y2="120.172"/>
</g>
<path fill="none" stroke="#010101" stroke-width="2" stroke-linecap="round" stroke-miterlimit="10" d="M2545.479,686.148"/>
<g>
	<rect x="1527.007" y="558.811" fill="none" stroke="#231F20" stroke-miterlimit="10" width="38.977" height="133.396"/>
	<line fill="none" stroke="#231F20" stroke-miterlimit="10" x1="1527.007" y1="574.109" x2="1565.981" y2="574.109"/>
	<line fill="none" stroke="#231F20" stroke-miterlimit="10" x1="1527.007" y1="590.979" x2="1565.981" y2="590.979"/>
	<line fill="none" stroke="#231F20" stroke-miterlimit="10" x1="1527.007" y1="607.854" x2="1565.981" y2="607.854"/>
	<line fill="none" stroke="#231F20" stroke-miterlimit="10" x1="1527.007" y1="624.724" x2="1565.981" y2="624.724"/>
	<line fill="none" stroke="#231F20" stroke-miterlimit="10" x1="1527.007" y1="641.594" x2="1565.981" y2="641.594"/>
	<line fill="none" stroke="#231F20" stroke-miterlimit="10" x1="1527.007" y1="660.154" x2="1565.981" y2="660.154"/>
	<line fill="none" stroke="#231F20" stroke-miterlimit="10" x1="1527.007" y1="677.021" x2="1565.981" y2="677.021"/>
</g>
<use xlink:href="#Node"  width="36" height="36" id="L02" x="-18" y="-18" transform="matrix(1 0 0 -1 614.4124 720.25)" overflow="visible" enable-background="new    "/>
<use xlink:href="#Node"  width="36" height="36" id="AC1" x="-18" y="-18" transform="matrix(1 0 0 -1 722.7444 720.25)" overflow="visible" enable-background="new    "/>
<use xlink:href="#Node"  width="36" height="36" id="Link_Block_Intersection_Lower" x="-18" y="-18" transform="matrix(1 0 0 -1 1333.9788 720.25)" overflow="visible" enable-background="new    "/>
<use xlink:href="#Node"  width="36" height="36" id="Link_Block_Staircase_1" x="-18" y="-18" transform="matrix(1 0 0 -1 392.0559 720.25)" overflow="visible" enable-background="new    "/>
<use xlink:href="#Node"  width="36" height="36" id="Link_Block_Staircase_2" x="-18" y="-18" transform="matrix(1 0 0 -1 1507.5217 720.25)" overflow="visible" enable-background="new    "/>
<g>
	<g>
		<rect x="896.678" y="1506.77" fill="none" stroke="#231F20" stroke-miterlimit="10" width="140.556" height="38.979"/>
		<line fill="none" stroke="#231F20" stroke-miterlimit="10" x1="912.798" y1="1545.748" x2="912.798" y2="1506.77"/>
		<line fill="none" stroke="#231F20" stroke-miterlimit="10" x1="930.572" y1="1545.748" x2="930.572" y2="1506.77"/>
		<line fill="none" stroke="#231F20" stroke-miterlimit="10" x1="948.354" y1="1545.748" x2="948.354" y2="1506.77"/>
		<line fill="none" stroke="#231F20" stroke-miterlimit="10" x1="966.129" y1="1545.748" x2="966.129" y2="1506.77"/>
		<line fill="none" stroke="#231F20" stroke-miterlimit="10" x1="983.903" y1="1545.748" x2="983.903" y2="1506.77"/>
		<line fill="none" stroke="#231F20" stroke-miterlimit="10" x1="1003.459" y1="1545.748" x2="1003.459" y2="1506.77"/>
		<line fill="none" stroke="#231F20" stroke-miterlimit="10" x1="1021.235" y1="1545.748" x2="1021.235" y2="1506.77"/>
	</g>
</g>
<g>
	<g>
		<rect x="38.018" y="1709.914" fill="none" stroke="#231F20" stroke-miterlimit="10" width="140.555" height="38.979"/>
		<line fill="none" stroke="#231F20" stroke-miterlimit="10" x1="54.137" y1="1748.893" x2="54.137" y2="1709.914"/>
		<line fill="none" stroke="#231F20" stroke-miterlimit="10" x1="71.911" y1="1748.893" x2="71.911" y2="1709.914"/>
		<line fill="none" stroke="#231F20" stroke-miterlimit="10" x1="89.693" y1="1748.893" x2="89.693" y2="1709.914"/>
		<line fill="none" stroke="#231F20" stroke-miterlimit="10" x1="107.468" y1="1748.893" x2="107.468" y2="1709.914"/>
		<line fill="none" stroke="#231F20" stroke-miterlimit="10" x1="125.242" y1="1748.893" x2="125.242" y2="1709.914"/>
		<line fill="none" stroke="#231F20" stroke-miterlimit="10" x1="144.798" y1="1748.893" x2="144.798" y2="1709.914"/>
		<line fill="none" stroke="#231F20" stroke-miterlimit="10" x1="162.574" y1="1748.893" x2="162.574" y2="1709.914"/>
	</g>
</g>
<path fill="none" stroke="#010101" stroke-width="2" stroke-miterlimit="10" d="M1025.343,533.875"/>
<line fill="none" stroke="#010101" stroke-width="2" stroke-miterlimit="10" x1="785.393" y1="691.581" x2="1025.347" y2="691.581"/>
<rect x="1024.661" y="558.794" fill="none" stroke="#010101" stroke-width="2" stroke-miterlimit="10" width="463.373" height="132.706"/>
<path fill="none" stroke="#010101" stroke-width="2" stroke-miterlimit="10" d="M1024.661,558.794"/>
<g>
	<g>
		<g>
			<g>
				<g>
					<defs>
						<line id="SVGID_49_" x1="1024.661" y1="558.794" x2="1024.661" y2="690.156"/>
					</defs>
					<clipPath id="SVGID_50_">
						<use xlink:href="#SVGID_49_"  overflow="visible"/>
					</clipPath>
					<polyline clip-path="url(#SVGID_50_)" fill="none" points="794.7,557.727 950.435,557.727 950.435,689.539 					"/>
				</g>
			</g>
		</g>
	</g>
</g>
<path fill="none" stroke="#010101" stroke-width="2" stroke-miterlimit="10" d="M453.079,557.727v134.854"/>
<g>
	<pattern  id="SVGID_51_" xlink:href="#SVGID_349_" patternTransform="matrix(1 0 0 -1 1332.5742 -17049.459)">
	</pattern>
	<rect x="950.435" y="559.688" fill="url(#SVGID_51_)" width="74.227" height="131.813"/>
</g>
<line fill="none" stroke="#010101" stroke-width="2" stroke-miterlimit="10" x1="950.435" y1="557.727" x2="1024.661" y2="558.794"/>
<g>
	<rect x="413.479" y="557.193" fill="none" stroke="#231F20" stroke-miterlimit="10" width="38.975" height="135.377"/>
	<line fill="none" stroke="#231F20" stroke-miterlimit="10" x1="413.479" y1="572.719" x2="452.453" y2="572.719"/>
	<line fill="none" stroke="#231F20" stroke-miterlimit="10" x1="413.479" y1="589.838" x2="452.453" y2="589.838"/>
	<line fill="none" stroke="#231F20" stroke-miterlimit="10" x1="413.479" y1="606.965" x2="452.453" y2="606.965"/>
	<line fill="none" stroke="#231F20" stroke-miterlimit="10" x1="413.479" y1="624.086" x2="452.453" y2="624.086"/>
	<line fill="none" stroke="#231F20" stroke-miterlimit="10" x1="413.479" y1="641.205" x2="452.453" y2="641.205"/>
	<line fill="none" stroke="#231F20" stroke-miterlimit="10" x1="413.479" y1="660.041" x2="452.453" y2="660.041"/>
	<line fill="none" stroke="#231F20" stroke-miterlimit="10" x1="413.479" y1="677.16" x2="452.453" y2="677.16"/>
</g>
<g>
	<rect x="1488.033" y="558.811" fill="none" stroke="#231F20" stroke-miterlimit="10" width="38.978" height="133.396"/>
	<line fill="none" stroke="#231F20" stroke-miterlimit="10" x1="1488.033" y1="574.109" x2="1527.009" y2="574.109"/>
	<line fill="none" stroke="#231F20" stroke-miterlimit="10" x1="1488.033" y1="590.979" x2="1527.009" y2="590.979"/>
	<line fill="none" stroke="#231F20" stroke-miterlimit="10" x1="1488.033" y1="607.854" x2="1527.009" y2="607.854"/>
	<line fill="none" stroke="#231F20" stroke-miterlimit="10" x1="1488.033" y1="624.724" x2="1527.009" y2="624.724"/>
	<line fill="none" stroke="#231F20" stroke-miterlimit="10" x1="1488.033" y1="641.594" x2="1527.009" y2="641.594"/>
	<line fill="none" stroke="#231F20" stroke-miterlimit="10" x1="1488.033" y1="660.154" x2="1527.009" y2="660.154"/>
	<line fill="none" stroke="#231F20" stroke-miterlimit="10" x1="1488.033" y1="677.021" x2="1527.009" y2="677.021"/>
</g>
<line fill="none" stroke="#000000" stroke-width="2" stroke-miterlimit="10" x1="2550.129" y1="1" x2="2356.273" y2="1"/>
<line fill="none" stroke="#000000" stroke-width="2" stroke-miterlimit="10" x1="2568.989" y1="738.525" x2="2453.2" y2="738.525"/>
<line fill="none" stroke="#000000" stroke-width="2" stroke-miterlimit="10" x1="2550.129" y1="132.014" x2="2550.129" y2="607.514"/>
<use xlink:href="#Node"  width="36" height="36" id="Link_Block_Staircase_2_1_" x="-18" y="-18" transform="matrix(1 0 0 -1 2572.9885 716.25)" overflow="visible" enable-background="new    "/>
<use xlink:href="#Node"  width="36" height="36" id="Link_Block_Staircase_2_2_" x="-18" y="-18" transform="matrix(1 0 0 -1 2572.9885 435.917)" overflow="visible" enable-background="new    "/>
<use xlink:href="#Node"  width="36" height="36" id="Link_Block_Staircase_2_3_" x="-18" y="-18" transform="matrix(1 0 0 -1 2572.9885 345.332)" overflow="visible" enable-background="new    "/>
<use xlink:href="#Node"  width="36" height="36" id="Link_Block_Staircase_2_4_" x="-18" y="-18" transform="matrix(1 0 0 -1 2572.9885 150.0137)" overflow="visible" enable-background="new    "/>
<rect x="428.479" y="1545.743" fill="none" stroke="#000000" stroke-width="2" stroke-miterlimit="10" width="468.885" height="202.862"/>
<g>
	<rect x="452.453" y="557.193" fill="#FFFFFF" width="497.438" height="134.307"/>
	
		<rect x="452.453" y="557.193" fill="none" stroke="#000000" stroke-width="2" stroke-miterlimit="10" width="497.438" height="134.307"/>
	
		<rect x="452.453" y="557.193" fill="none" stroke="#000000" stroke-width="2" stroke-miterlimit="10" width="166.545" height="134.307"/>
	
		<rect x="783.348" y="557.193" fill="none" stroke="#000000" stroke-width="2" stroke-miterlimit="10" width="166.544" height="134.299"/>
</g>
<text transform="matrix(1 0 0 1 483.2039 637.2051)" font-family="'MyriadPro-Regular'" font-size="40">MA501</text>
<text transform="matrix(1 0 0 1 641.0256 637.2051)" font-family="'MyriadPro-Regular'" font-size="40">MA502</text>
<text transform="matrix(1 0 0 1 809.3928 637.2051)" font-family="'MyriadPro-Regular'" font-size="40">MA503</text>
<rect x="1040.432" y="558.723" fill="#FFFFFF" width="448.447" height="129.563"/>
<rect x="1040.432" y="558.723" fill="none" stroke="#000000" stroke-miterlimit="10" width="448.447" height="129.563"/>
<rect x="1024.381" y="558.723" fill="#FFFFFF" stroke="#000000" stroke-width="2" stroke-miterlimit="10" width="464.498" height="132.771"/>
<rect x="1024.381" y="558.723" fill="none" stroke="#000000" stroke-miterlimit="10" width="464.498" height="132.959"/>
<rect x="1256.892" y="558.719" fill="none" stroke="#000000" stroke-width="2" stroke-miterlimit="10" width="116.125" height="132.957"/>
<rect x="1024.381" y="558.719" fill="none" stroke="#000000" stroke-width="2" stroke-miterlimit="10" width="116.188" height="133.033"/>
<rect x="1372.948" y="558.719" fill="none" stroke="#000000" stroke-miterlimit="10" width="116.189" height="133.033"/>
<text transform="matrix(1 0 0 1 1147.9456 631.5938)" font-family="'MyriadPro-Regular'" font-size="35.5168">MA504</text>
<text transform="matrix(1 0 0 1 1263.0417 631.5938)" font-family="'MyriadPro-Regular'" font-size="35.5168">MA505</text>
<text transform="matrix(1 0 0 1 1379.0027 631.5938)" font-family="'MyriadPro-Regular'" font-size="35.5168">MA506</text>
<line fill="none" stroke="#000000" stroke-width="2" stroke-miterlimit="10" x1="374.504" y1="691.719" x2="374.504" y2="746.697"/>
<text transform="matrix(1 0 0 1 1036.8718 618.9854)" font-family="'MyriadPro-Regular'" font-size="35.5168">Maths</text>
<text transform="matrix(1 0 0 1 1038.9138 661.6045)" font-family="'MyriadPro-Regular'" font-size="35.5168">Office</text>
<rect x="38.018" y="1571.125" fill="#FFFFFF" stroke="#000000" stroke-width="2" stroke-miterlimit="10" width="140.555" height="138.789"/>
<text transform="matrix(1 0 0 1 57.0549 1628.8311)" font-family="'MyriadPro-Regular'" font-size="31.0776">Science</text>
<text transform="matrix(1 0 0 1 68.3508 1666.124)" font-family="'MyriadPro-Regular'" font-size="31.0776">Office</text>
<line fill="none" stroke="#000000" stroke-width="2" stroke-miterlimit="10" x1="2550.129" y1="738.523" x2="2356.273" y2="738.523"/>
<line fill="none" stroke="#000000" stroke-width="2" stroke-miterlimit="10" x1="1037.416" y1="1748.533" x2="1037.416" y2="1545.451"/>
<rect x="428.479" y="1545.451" fill="#FFFFFF" width="608.938" height="203.082"/>
<rect x="428.479" y="1545.451" fill="none" stroke="#000000" stroke-width="2" stroke-miterlimit="10" width="608.938" height="203.082"/>
<rect x="711.26" y="1545.55" fill="none" stroke="#000000" stroke-width="2" stroke-miterlimit="10" width="110.254" height="202.704"/>
<rect x="428.479" y="1545.742" fill="none" stroke="#000000" stroke-width="2" stroke-miterlimit="10" width="164.718" height="202.697"/>
<rect x="927.053" y="1545.742" fill="none" stroke="#000000" stroke-width="2" stroke-miterlimit="10" width="110.177" height="202.697"/>
<rect x="593.197" y="1545.742" fill="#D1D3D4" width="118.988" height="202.697"/>
<rect x="593.197" y="1545.742" fill="none" stroke="#000000" stroke-width="2" stroke-miterlimit="10" width="118.988" height="202.697"/>
<text transform="matrix(0.9817 0 0 1 443.2307 1665.8711)" font-family="'MyriadPro-Regular'" font-size="53.3084">SC401</text>
<text transform="matrix(0 -1.0187 1 0 791.012 1716.709)" font-family="'MyriadPro-Regular'" font-size="52.3326">SC402</text>
<text transform="matrix(0 -1.0187 1 0 893.2717 1716.7129)" font-family="'MyriadPro-Regular'" font-size="52.3326">SC403</text>
<text transform="matrix(0 -1.0187 1 0 998.6204 1716.7051)" font-family="'MyriadPro-Regular'" font-size="52.3326">SC404</text>
<g>
	<line fill="none" stroke="#000000" stroke-width="2" stroke-miterlimit="10" x1="2550.129" y1="2.785" x2="2357.519" y2="2.785"/>
	
		<line fill="none" stroke="#000000" stroke-width="2" stroke-miterlimit="10" x1="2550.129" y1="738.525" x2="2453.823" y2="738.525"/>
	
		<line fill="none" stroke="#000000" stroke-width="2" stroke-miterlimit="10" x1="2550.129" y1="133.48" x2="2550.129" y2="607.831"/>
	<rect x="2357.519" y="2.785" fill="#D1D3D4" width="192.611" height="48.816"/>
	
		<rect x="2357.519" y="2.785" fill="none" stroke="#000000" stroke-width="2" stroke-miterlimit="10" width="192.611" height="48.816"/>
	
		<rect x="2357.519" y="52.473" fill="none" stroke="#000000" stroke-width="2" stroke-miterlimit="10" width="192.611" height="275.004"/>
	
		<rect x="2357.519" y="327.477" fill="none" stroke="#000000" stroke-width="2" stroke-miterlimit="10" width="192.611" height="100.246"/>
	
		<rect x="2357.519" y="427.723" fill="none" stroke="#000000" stroke-width="2" stroke-miterlimit="10" width="192.611" height="310.804"/>
	<text transform="matrix(0.996 0 0 1 2373.8684 583.1211)" font-family="'MyriadPro-Regular'" font-size="59.5066">DS501</text>
	<text transform="matrix(0.996 0 0 1 2392.1926 369.1953)" font-family="'MyriadPro-Regular'" font-size="39.671">D</text>
	<text transform="matrix(0.996 0 0 1 2418.5071 369.1953)" font-family="'MyriadPro-Regular'" font-size="39.671">r</text>
	<text transform="matrix(0.996 0 0 1 2431.2688 369.1953)" font-family="'MyriadPro-Regular'" font-size="39.671">ama</text>
	<text transform="matrix(0.996 0 0 1 2404.1252 416.8027)" font-family="'MyriadPro-Regular'" font-size="39.671">S</text>
	<text transform="matrix(0.996 0 0 1 2423.5256 416.8027)" font-family="'MyriadPro-Regular'" font-size="39.671">t</text>
	<text transform="matrix(0.996 0 0 1 2436.3674 416.8027)" font-family="'MyriadPro-Regular'" font-size="39.671">o</text>
	<text transform="matrix(0.996 0 0 1 2458.0588 416.8027)" font-family="'MyriadPro-Regular'" font-size="39.671">r</text>
	<text transform="matrix(0.996 0 0 1 2470.6233 416.8027)" font-family="'MyriadPro-Regular'" font-size="39.671">e</text>
	<text transform="matrix(0.996 0 0 1 2373.8684 216.1309)" font-family="'MyriadPro-Regular'" font-size="59.5066">DS502</text>
</g>
</svg>
