<?xml version="1.0" encoding="utf-8"?>
<!-- Generator: Adobe Illustrator 16.0.0, SVG Export Plug-In . SVG Version: 6.00 Build 0)  -->
<!DOCTYPE svg PUBLIC "-//W3C//DTD SVG 1.1//EN" "http://www.w3.org/Graphics/SVG/1.1/DTD/svg11.dtd">
<svg version="1.1" id="Layer_1" xmlns="http://www.w3.org/2000/svg" xmlns:xlink="http://www.w3.org/1999/xlink" x="0px" y="0px"
	 width="3571.422px" height="1769.283px" viewBox="0 0 3571.422 1769.283" enable-background="new 0 0 3571.422 1769.283"
	 xml:space="preserve">
<symbol  id="Node" viewBox="-18 -18 36 36">
	<path fill="#FFFFFF" stroke="#010101" stroke-width="6" stroke-miterlimit="10" d="M15,0c0-8.284-6.716-15-15-15S-15-8.284-15,0
		s6.716,15,15,15S15,8.284,15,0z"/>
</symbol>
<polyline fill="none" stroke="#000000" stroke-width="2" stroke-miterlimit="10" points="79.94,1571.052 386.671,1571.052 
	386.671,1515.962 897.673,1515.962 897.673,1492.981 1038.231,1492.981 1038.229,1506.696 1038.231,1570.94 898.36,1571.052 
	898.36,1748.532 417.698,1748.438 387.053,1748.819 245.813,1748.819 179.567,1748.819 "/>
<g id="Edges">
</g>
<use xlink:href="#Node"  width="36" height="36" id="Science_Block_Staircase_2" x="-18" y="-18" transform="matrix(1 0 0 -1 875.5549 1544.6191)" overflow="visible" enable-background="new    "/>
<use xlink:href="#Node"  width="36" height="36" id="Roof_Garden" x="-18" y="-18" transform="matrix(1 0 0 -1 647.2161 1633.4619)" overflow="visible" enable-background="new    "/>
<path fill="#D1D2D3" d="M386.671,1571.052"/>
<path fill="none" stroke="#231F20" stroke-miterlimit="10" d="M386.671,1571.052"/>
<polyline fill="none" stroke="#000000" stroke-width="2" stroke-miterlimit="10" points="179.567,1748.819 39.18,1748.819 
	39.18,1571.052 79.94,1571.052 "/>
<path fill="none" stroke="#231F20" stroke-width="2" stroke-miterlimit="10" d="M1038.229,1748.817"/>
<path fill="none" stroke="#231F20" stroke-width="2" stroke-miterlimit="10" d="M245.813,1748.817"/>
<path fill="none" stroke="#231F20" stroke-width="2" stroke-miterlimit="10" d="M1038.229,1520.263"/>
<path fill="none" stroke="#231F20" stroke-width="2" stroke-miterlimit="10" d="M1038.229,1748.817"/>
<path fill="#D1D2D3" d="M386.671,1571.052v-50.789V1571.052z"/>
<path fill="none" stroke="#231F20" stroke-miterlimit="10" d="M386.671,1571.052"/>
<path fill="none" stroke="#231F20" stroke-miterlimit="10" d="M386.671,1520.263"/>
<line fill="none" stroke="#231F20" stroke-miterlimit="10" x1="897.675" y1="1545.659" x2="897.675" y2="1520.263"/>
<path fill="none" stroke="#231F20" stroke-miterlimit="10" d="M1038.229,1545.659"/>
<path fill="none" stroke="#231F20" stroke-miterlimit="10" d="M913.792,1520.263"/>
<path fill="none" stroke="#231F20" stroke-miterlimit="10" d="M913.792,1545.657"/>
<path fill="none" stroke="#231F20" stroke-miterlimit="10" d="M931.57,1520.263"/>
<path fill="none" stroke="#231F20" stroke-miterlimit="10" d="M931.57,1545.657"/>
<path fill="none" stroke="#231F20" stroke-miterlimit="10" d="M949.346,1520.263"/>
<path fill="none" stroke="#231F20" stroke-miterlimit="10" d="M949.346,1545.657"/>
<path fill="none" stroke="#231F20" stroke-miterlimit="10" d="M967.116,1520.263"/>
<path fill="none" stroke="#231F20" stroke-miterlimit="10" d="M967.116,1545.657"/>
<path fill="none" stroke="#231F20" stroke-miterlimit="10" d="M984.896,1520.263"/>
<path fill="none" stroke="#231F20" stroke-miterlimit="10" d="M984.896,1545.657"/>
<path fill="none" stroke="#231F20" stroke-miterlimit="10" d="M1004.448,1520.263"/>
<path fill="none" stroke="#231F20" stroke-miterlimit="10" d="M1004.448,1545.657"/>
<path fill="none" stroke="#231F20" stroke-miterlimit="10" d="M1022.229,1520.263"/>
<path fill="none" stroke="#231F20" stroke-miterlimit="10" d="M1022.229,1545.657"/>
<g>
	<g>
		<rect x="897.673" y="1531.962" fill="none" stroke="#231F20" stroke-miterlimit="10" width="140.559" height="38.979"/>
		<line fill="none" stroke="#231F20" stroke-miterlimit="10" x1="913.794" y1="1570.939" x2="913.794" y2="1531.962"/>
		<line fill="none" stroke="#231F20" stroke-miterlimit="10" x1="931.567" y1="1570.939" x2="931.567" y2="1531.962"/>
		<line fill="none" stroke="#231F20" stroke-miterlimit="10" x1="949.35" y1="1570.939" x2="949.35" y2="1531.962"/>
		<line fill="none" stroke="#231F20" stroke-miterlimit="10" x1="967.125" y1="1570.939" x2="967.125" y2="1531.962"/>
		<line fill="none" stroke="#231F20" stroke-miterlimit="10" x1="984.898" y1="1570.939" x2="984.898" y2="1531.962"/>
		<line fill="none" stroke="#231F20" stroke-miterlimit="10" x1="1004.455" y1="1570.939" x2="1004.455" y2="1531.962"/>
		<line fill="none" stroke="#231F20" stroke-miterlimit="10" x1="1022.23" y1="1570.939" x2="1022.23" y2="1531.962"/>
	</g>
</g>
<g>
	<g>
		<rect x="39.014" y="1709.841" fill="none" stroke="#231F20" stroke-miterlimit="10" width="140.555" height="38.979"/>
		<line fill="none" stroke="#231F20" stroke-miterlimit="10" x1="55.133" y1="1748.819" x2="55.133" y2="1709.841"/>
		<line fill="none" stroke="#231F20" stroke-miterlimit="10" x1="72.907" y1="1748.819" x2="72.907" y2="1709.841"/>
		<line fill="none" stroke="#231F20" stroke-miterlimit="10" x1="90.688" y1="1748.819" x2="90.688" y2="1709.841"/>
		<line fill="none" stroke="#231F20" stroke-miterlimit="10" x1="108.464" y1="1748.819" x2="108.464" y2="1709.841"/>
		<line fill="none" stroke="#231F20" stroke-miterlimit="10" x1="126.239" y1="1748.819" x2="126.239" y2="1709.841"/>
		<line fill="none" stroke="#231F20" stroke-miterlimit="10" x1="145.795" y1="1748.819" x2="145.795" y2="1709.841"/>
		<line fill="none" stroke="#231F20" stroke-miterlimit="10" x1="163.57" y1="1748.819" x2="163.57" y2="1709.841"/>
	</g>
</g>
<polyline fill="none" stroke="#000000" stroke-width="2" stroke-miterlimit="10" points="898.36,1571.052 898.36,1748.53 
	443.021,1748.53 "/>
<line fill="none" stroke="#000000" stroke-width="2" stroke-miterlimit="10" x1="774.05" y1="1748.153" x2="647.216" y2="1748.153"/>
<line fill="none" stroke="#000000" stroke-width="2" stroke-miterlimit="10" x1="647.218" y1="1748.153" x2="556.309" y2="1748.153"/>
<g>
	<g>
		<rect x="897.673" y="1492.981" fill="none" stroke="#231F20" stroke-miterlimit="10" width="140.559" height="38.979"/>
		<line fill="none" stroke="#231F20" stroke-miterlimit="10" x1="913.794" y1="1531.96" x2="913.794" y2="1492.981"/>
		<line fill="none" stroke="#231F20" stroke-miterlimit="10" x1="931.567" y1="1531.96" x2="931.567" y2="1492.981"/>
		<line fill="none" stroke="#231F20" stroke-miterlimit="10" x1="949.35" y1="1531.96" x2="949.35" y2="1492.981"/>
		<line fill="none" stroke="#231F20" stroke-miterlimit="10" x1="967.125" y1="1531.96" x2="967.125" y2="1492.981"/>
		<line fill="none" stroke="#231F20" stroke-miterlimit="10" x1="984.898" y1="1531.96" x2="984.898" y2="1492.981"/>
		<line fill="none" stroke="#231F20" stroke-miterlimit="10" x1="1004.455" y1="1531.96" x2="1004.455" y2="1492.981"/>
		<line fill="none" stroke="#231F20" stroke-miterlimit="10" x1="1022.23" y1="1531.96" x2="1022.23" y2="1492.981"/>
	</g>
</g>
<polyline fill="none" stroke="#231F20" stroke-miterlimit="10" points="39.096,1670.862 179.65,1670.862 179.65,1709.841 "/>
<line fill="none" stroke="#231F20" stroke-miterlimit="10" x1="55.215" y1="1709.841" x2="55.215" y2="1670.862"/>
<line fill="none" stroke="#231F20" stroke-miterlimit="10" x1="72.99" y1="1709.841" x2="72.99" y2="1670.862"/>
<line fill="none" stroke="#231F20" stroke-miterlimit="10" x1="90.771" y1="1709.841" x2="90.771" y2="1670.862"/>
<line fill="none" stroke="#231F20" stroke-miterlimit="10" x1="108.547" y1="1709.841" x2="108.547" y2="1670.862"/>
<line fill="none" stroke="#231F20" stroke-miterlimit="10" x1="126.322" y1="1709.841" x2="126.322" y2="1670.862"/>
<line fill="none" stroke="#231F20" stroke-miterlimit="10" x1="145.878" y1="1709.841" x2="145.878" y2="1670.862"/>
<line fill="none" stroke="#231F20" stroke-miterlimit="10" x1="163.653" y1="1709.841" x2="163.653" y2="1670.862"/>
<path fill="none" stroke="#010101" stroke-width="2" stroke-linecap="round" stroke-miterlimit="10" d="M386.671,1670.862"/>
<path fill="none" stroke="#010101" stroke-width="2" stroke-linecap="round" stroke-miterlimit="10" d="M386.671,1571.052"/>
<path fill="none" stroke="#010101" stroke-width="2" stroke-linecap="round" stroke-miterlimit="10" d="M179.65,1670.862"/>
<path fill="none" stroke="#010101" stroke-width="2" stroke-linecap="round" stroke-miterlimit="10" d="M386.671,1670.862"/>
<path fill="none" stroke="#231F20" stroke-miterlimit="10" d="M914.116,1520.184"/>
<path fill="none" stroke="#231F20" stroke-miterlimit="10" d="M931.894,1520.184"/>
<path fill="none" stroke="#231F20" stroke-miterlimit="10" d="M949.671,1520.184"/>
<path fill="none" stroke="#231F20" stroke-miterlimit="10" d="M967.44,1520.184"/>
<path fill="none" stroke="#231F20" stroke-miterlimit="10" d="M985.222,1520.184"/>
<path fill="none" stroke="#231F20" stroke-miterlimit="10" d="M1004.772,1520.184"/>
<path fill="none" stroke="#231F20" stroke-miterlimit="10" d="M1022.554,1520.184"/>
</svg>
