<?xml version="1.0" encoding="utf-8"?>
<!-- Generator: Adobe Illustrator 16.0.0, SVG Export Plug-In . SVG Version: 6.00 Build 0)  -->
<!DOCTYPE svg PUBLIC "-//W3C//DTD SVG 1.1//EN" "http://www.w3.org/Graphics/SVG/1.1/DTD/svg11.dtd">
<svg version="1.1" id="Layer_1" xmlns="http://www.w3.org/2000/svg" xmlns:xlink="http://www.w3.org/1999/xlink" x="0px" y="0px"
	 width="612px" height="792px" viewBox="0 0 612 792" enable-background="new 0 0 612 792" xml:space="preserve">
<symbol  id="Node" viewBox="-18 -18 36 36">
	<path fill="#FFFFFF" stroke="#010101" stroke-width="6" stroke-miterlimit="10" d="M15,0c0-8.284-6.717-15-15-15
		c-8.285,0-15,6.716-15,15s6.715,15,15,15C8.283,15,15,8.284,15,0z"/>
</symbol>
<rect x="133.185" y="516.057" fill="#FFFFFF" stroke="#000000" stroke-miterlimit="10" width="158.614" height="64.39"/>
<g enable-background="new    ">
	<path d="M174.077,541.505h-0.049l-2.776,1.499l-0.418-1.646l3.489-1.867h1.842v15.969h-2.088V541.505z"/>
	<path d="M182.378,553.248c0.639,0.418,1.769,0.859,2.85,0.859c1.572,0,2.31-0.786,2.31-1.769c0-1.031-0.614-1.597-2.211-2.187
		c-2.138-0.762-3.145-1.94-3.145-3.365c0-1.916,1.547-3.488,4.103-3.488c1.204,0,2.26,0.344,2.923,0.736l-0.541,1.572
		c-0.467-0.295-1.327-0.688-2.432-0.688c-1.277,0-1.99,0.737-1.99,1.621c0,0.983,0.712,1.425,2.26,2.015
		c2.063,0.786,3.12,1.818,3.12,3.587c0,2.088-1.621,3.587-4.446,3.587c-1.302,0-2.506-0.344-3.341-0.836L182.378,553.248z"/>
	<path d="M195.003,540.719v2.85h3.095v1.646h-3.095v6.412c0,1.474,0.417,2.309,1.622,2.309c0.589,0,0.933-0.049,1.252-0.147
		l0.099,1.622c-0.418,0.172-1.081,0.319-1.917,0.319c-1.007,0-1.818-0.344-2.333-0.934c-0.614-0.639-0.835-1.695-0.835-3.096v-6.485
		h-1.842v-1.646h1.842v-2.187L195.003,540.719z"/>
	<path d="M205.809,538.901h8.917v1.793h-6.78v5.503h6.265v1.769h-6.265v7.493h-2.137V538.901z"/>
	<path d="M217.28,538.017h2.162v17.442h-2.162V538.017z"/>
	<path d="M233.836,549.416c0,4.397-3.046,6.313-5.921,6.313c-3.218,0-5.699-2.358-5.699-6.117c0-3.979,2.604-6.313,5.896-6.313
		C231.527,543.299,233.836,545.779,233.836,549.416z M224.403,549.538c0,2.604,1.499,4.569,3.611,4.569
		c2.063,0,3.611-1.94,3.611-4.618c0-2.015-1.007-4.569-3.563-4.569C225.508,544.92,224.403,547.278,224.403,549.538z"/>
	<path d="M247.321,549.416c0,4.397-3.046,6.313-5.921,6.313c-3.218,0-5.699-2.358-5.699-6.117c0-3.979,2.604-6.313,5.896-6.313
		C245.011,543.299,247.321,545.779,247.321,549.416z M237.887,549.538c0,2.604,1.499,4.569,3.611,4.569
		c2.063,0,3.611-1.94,3.611-4.618c0-2.015-1.007-4.569-3.563-4.569C238.992,544.92,237.887,547.278,237.887,549.538z"/>
	<path d="M250.044,547.278c0-1.4-0.024-2.604-0.098-3.71h1.892l0.074,2.334h0.098c0.541-1.597,1.842-2.604,3.292-2.604
		c0.246,0,0.417,0.024,0.614,0.073v2.039c-0.221-0.049-0.442-0.073-0.737-0.073c-1.523,0-2.604,1.154-2.899,2.775
		c-0.049,0.295-0.098,0.639-0.098,1.008v6.338h-2.137V547.278z"/>
</g>
<rect x="133.185" y="602.744" fill="#FFFFFF" stroke="#000000" stroke-miterlimit="10" width="158.614" height="64.387"/>
<g enable-background="new    ">
	<path d="M158.778,641.409c-0.958,0.345-2.85,0.909-5.085,0.909c-2.505,0-4.569-0.639-6.19-2.187
		c-1.425-1.376-2.31-3.587-2.31-6.166c0.025-4.938,3.415-8.549,8.967-8.549c1.917,0,3.415,0.417,4.127,0.761l-0.516,1.745
		c-0.884-0.394-1.99-0.713-3.66-0.713c-4.029,0-6.658,2.506-6.658,6.657c0,4.201,2.53,6.683,6.387,6.683
		c1.4,0,2.358-0.196,2.85-0.442v-4.938h-3.366v-1.72h5.454V641.409z"/>
	<path d="M161.968,633.966c0-1.4-0.024-2.604-0.098-3.71h1.892l0.074,2.334h0.098c0.541-1.597,1.842-2.604,3.292-2.604
		c0.246,0,0.417,0.024,0.614,0.073v2.039c-0.221-0.049-0.442-0.073-0.737-0.073c-1.523,0-2.604,1.154-2.899,2.775
		c-0.049,0.295-0.098,0.639-0.098,1.008v6.338h-2.137V633.966z"/>
	<path d="M180.514,636.104c0,4.397-3.046,6.313-5.921,6.313c-3.218,0-5.699-2.358-5.699-6.117c0-3.979,2.604-6.313,5.896-6.313
		C178.205,629.986,180.514,632.467,180.514,636.104z M171.081,636.226c0,2.604,1.499,4.569,3.611,4.569
		c2.063,0,3.611-1.94,3.611-4.618c0-2.015-1.007-4.569-3.563-4.569C172.186,631.607,171.081,633.966,171.081,636.226z"/>
	<path d="M193.187,638.903c0,1.229,0.025,2.31,0.099,3.243h-1.917l-0.123-1.94h-0.049c-0.565,0.958-1.818,2.211-3.931,2.211
		c-1.867,0-4.103-1.032-4.103-5.208v-6.953h2.162v6.584c0,2.261,0.688,3.783,2.653,3.783c1.45,0,2.457-1.007,2.85-1.965
		c0.123-0.319,0.197-0.713,0.197-1.105v-7.297h2.162V638.903z"/>
	<path d="M196.772,633.475c0-1.229-0.024-2.235-0.098-3.219h1.916l0.123,1.966h0.049c0.59-1.13,1.965-2.235,3.931-2.235
		c1.646,0,4.201,0.982,4.201,5.061v7.1h-2.162v-6.854c0-1.916-0.712-3.513-2.751-3.513c-1.425,0-2.53,1.007-2.899,2.211
		c-0.098,0.271-0.147,0.639-0.147,1.008v7.148h-2.162V633.475z"/>
	<path d="M220.672,624.704v14.371c0,1.057,0.025,2.261,0.099,3.071h-1.941l-0.098-2.063h-0.049
		c-0.663,1.326-2.113,2.334-4.053,2.334c-2.875,0-5.085-2.433-5.085-6.044c-0.024-3.955,2.432-6.387,5.331-6.387
		c1.818,0,3.046,0.859,3.586,1.817h0.049v-7.1H220.672z M218.51,635.096c0-0.271-0.024-0.639-0.098-0.909
		c-0.319-1.375-1.499-2.506-3.12-2.506c-2.235,0-3.562,1.966-3.562,4.595c0,2.407,1.179,4.397,3.513,4.397
		c1.45,0,2.776-0.958,3.169-2.58c0.074-0.295,0.098-0.59,0.098-0.934V635.096z"/>
	<path d="M229.536,625.589h8.917v1.793h-6.78v5.503h6.265v1.769h-6.265v7.493h-2.137V625.589z"/>
	<path d="M241.007,624.704h2.162v17.442h-2.162V624.704z"/>
	<path d="M257.563,636.104c0,4.397-3.046,6.313-5.921,6.313c-3.218,0-5.699-2.358-5.699-6.117c0-3.979,2.604-6.313,5.896-6.313
		C255.254,629.986,257.563,632.467,257.563,636.104z M248.13,636.226c0,2.604,1.499,4.569,3.611,4.569
		c2.063,0,3.611-1.94,3.611-4.618c0-2.015-1.007-4.569-3.563-4.569C249.235,631.607,248.13,633.966,248.13,636.226z"/>
	<path d="M271.047,636.104c0,4.397-3.046,6.313-5.921,6.313c-3.218,0-5.699-2.358-5.699-6.117c0-3.979,2.604-6.313,5.896-6.313
		C268.738,629.986,271.047,632.467,271.047,636.104z M261.614,636.226c0,2.604,1.499,4.569,3.611,4.569
		c2.063,0,3.611-1.94,3.611-4.618c0-2.015-1.007-4.569-3.563-4.569C262.719,631.607,261.614,633.966,261.614,636.226z"/>
	<path d="M273.771,633.966c0-1.4-0.025-2.604-0.098-3.71h1.892l0.074,2.334h0.098c0.541-1.597,1.842-2.604,3.292-2.604
		c0.246,0,0.417,0.024,0.614,0.073v2.039c-0.221-0.049-0.442-0.073-0.737-0.073c-1.523,0-2.604,1.154-2.899,2.775
		c-0.049,0.295-0.098,0.639-0.098,1.008v6.338h-2.137V633.966z"/>
</g>
<g id="Edges">
</g>
<use xlink:href="#Node"  width="36" height="36" id="Floor_1" x="-18" y="-18" transform="matrix(1 0 0 -1 323.4924 548.25)" overflow="visible"/>
<use xlink:href="#Node"  width="36" height="36" id="Floor_0" x="-18" y="-18" transform="matrix(1 0 0 -1 323.4924 634.9375)" overflow="visible" enable-background="new    "/>
<use xlink:href="#Node"  width="36" height="36" id="Target_1" x="-18" y="-18" transform="matrix(1 0 0 -1 239.4924 548.25)" overflow="visible" opacity="0" enable-background="new    "/>
<use xlink:href="#Node"  width="36" height="36" id="Target_0" x="-18" y="-18" transform="matrix(1 0 0 -1 239.4924 634.9375)" overflow="visible" opacity="0" enable-background="new    "/>
</svg>
