<?xml version="1.0" encoding="utf-8"?>
<!-- Generator: Adobe Illustrator 16.0.0, SVG Export Plug-In . SVG Version: 6.00 Build 0)  -->
<!DOCTYPE svg PUBLIC "-//W3C//DTD SVG 1.1//EN" "http://www.w3.org/Graphics/SVG/1.1/DTD/svg11.dtd">
<svg version="1.1" id="Layer_1" xmlns="http://www.w3.org/2000/svg" xmlns:xlink="http://www.w3.org/1999/xlink" x="0px" y="0px"
	 width="612px" height="792px" viewBox="0 0 612 792" enable-background="new 0 0 612 792" xml:space="preserve">
<symbol  id="Node" viewBox="-18 -18 36 36">
	<path fill="#FFFFFF" stroke="#010101" stroke-width="6" stroke-miterlimit="10" d="M15,0c0-8.284-6.717-15-15-15
		c-8.285,0-15,6.716-15,15s6.715,15,15,15C8.283,15,15,8.284,15,0z"/>
</symbol>
<rect x="133.185" y="169.304" fill="#FFFFFF" stroke="#000000" stroke-miterlimit="10" width="158.614" height="64.388"/>
<g enable-background="new    ">
	<path d="M176.966,194.558h-6.092l-0.614,4.103c0.369-0.049,0.712-0.099,1.302-0.099c1.228,0,2.457,0.271,3.439,0.86
		c1.253,0.712,2.285,2.088,2.285,4.103c0,3.12-2.481,5.454-5.945,5.454c-1.744,0-3.218-0.491-3.98-0.983l0.541-1.646
		c0.663,0.394,1.965,0.885,3.415,0.885c2.039,0,3.784-1.327,3.784-3.464c-0.025-2.064-1.4-3.538-4.594-3.538
		c-0.909,0-1.622,0.099-2.211,0.172l1.032-7.665h7.64V194.558z"/>
	<path d="M183.326,193.968v2.85h3.095v1.646h-3.095v6.412c0,1.474,0.417,2.309,1.622,2.309c0.589,0,0.933-0.049,1.252-0.147
		l0.099,1.622c-0.418,0.172-1.081,0.319-1.917,0.319c-1.007,0-1.818-0.344-2.333-0.934c-0.614-0.639-0.835-1.695-0.835-3.096v-6.485
		h-1.842v-1.646h1.842v-2.187L183.326,193.968z"/>
	<path d="M188.852,191.266h2.162v7.419h0.049c0.344-0.614,0.884-1.154,1.548-1.522c0.639-0.369,1.4-0.614,2.211-0.614
		c1.597,0,4.152,0.982,4.152,5.085v7.075h-2.162v-6.829c0-1.917-0.712-3.538-2.751-3.538c-1.4,0-2.506,0.982-2.899,2.162
		c-0.123,0.295-0.147,0.614-0.147,1.031v7.174h-2.162V191.266z"/>
	<path d="M207.764,192.15h8.917v1.793h-6.78v5.503h6.265v1.769h-6.265v7.493h-2.137V192.15z"/>
	<path d="M219.234,191.266h2.162v17.442h-2.162V191.266z"/>
	<path d="M235.791,202.665c0,4.397-3.046,6.313-5.921,6.313c-3.218,0-5.699-2.358-5.699-6.117c0-3.979,2.604-6.313,5.896-6.313
		C233.481,196.548,235.791,199.028,235.791,202.665z M226.357,202.787c0,2.604,1.499,4.569,3.611,4.569
		c2.063,0,3.611-1.94,3.611-4.618c0-2.015-1.007-4.569-3.563-4.569C227.463,198.169,226.357,200.527,226.357,202.787z"/>
	<path d="M249.275,202.665c0,4.397-3.046,6.313-5.921,6.313c-3.218,0-5.699-2.358-5.699-6.117c0-3.979,2.604-6.313,5.896-6.313
		C246.965,196.548,249.275,199.028,249.275,202.665z M239.841,202.787c0,2.604,1.499,4.569,3.611,4.569
		c2.063,0,3.611-1.94,3.611-4.618c0-2.015-1.007-4.569-3.563-4.569C240.947,198.169,239.841,200.527,239.841,202.787z"/>
	<path d="M251.999,200.527c0-1.4-0.024-2.604-0.098-3.71h1.892l0.074,2.334h0.098c0.541-1.597,1.842-2.604,3.292-2.604
		c0.246,0,0.417,0.024,0.614,0.073v2.039c-0.221-0.049-0.442-0.073-0.737-0.073c-1.523,0-2.604,1.154-2.899,2.775
		c-0.049,0.295-0.098,0.639-0.098,1.008v6.338h-2.137V200.527z"/>
</g>
<rect x="133.185" y="255.992" fill="#FFFFFF" stroke="#000000" stroke-miterlimit="10" width="158.614" height="64.388"/>
<g enable-background="new    ">
	<path d="M174.116,295.396v-4.349h-7.419v-1.425l7.124-10.195h2.334v9.926h2.235v1.694h-2.235v4.349H174.116z M174.116,289.353
		v-5.331c0-0.836,0.024-1.671,0.074-2.506h-0.074c-0.491,0.934-0.884,1.621-1.327,2.358l-3.906,5.429v0.05H174.116z"/>
	<path d="M183.326,280.655v2.85h3.095v1.646h-3.095v6.412c0,1.474,0.417,2.309,1.622,2.309c0.589,0,0.933-0.049,1.252-0.147
		l0.099,1.622c-0.418,0.172-1.081,0.319-1.917,0.319c-1.007,0-1.818-0.344-2.333-0.934c-0.614-0.639-0.835-1.695-0.835-3.096v-6.485
		h-1.842v-1.646h1.842v-2.187L183.326,280.655z"/>
	<path d="M188.852,277.953h2.162v7.419h0.049c0.344-0.614,0.884-1.154,1.548-1.522c0.639-0.369,1.4-0.614,2.211-0.614
		c1.597,0,4.152,0.982,4.152,5.085v7.075h-2.162v-6.829c0-1.917-0.712-3.538-2.751-3.538c-1.4,0-2.506,0.982-2.899,2.162
		c-0.123,0.295-0.147,0.614-0.147,1.031v7.174h-2.162V277.953z"/>
	<path d="M207.764,278.838h8.917v1.793h-6.78v5.503h6.265v1.769h-6.265v7.493h-2.137V278.838z"/>
	<path d="M219.234,277.953h2.162v17.442h-2.162V277.953z"/>
	<path d="M235.791,289.353c0,4.397-3.046,6.313-5.921,6.313c-3.218,0-5.699-2.358-5.699-6.117c0-3.979,2.604-6.313,5.896-6.313
		C233.481,283.235,235.791,285.716,235.791,289.353z M226.357,289.475c0,2.604,1.499,4.569,3.611,4.569
		c2.063,0,3.611-1.94,3.611-4.618c0-2.015-1.007-4.569-3.563-4.569C227.463,284.856,226.357,287.215,226.357,289.475z"/>
	<path d="M249.275,289.353c0,4.397-3.046,6.313-5.921,6.313c-3.218,0-5.699-2.358-5.699-6.117c0-3.979,2.604-6.313,5.896-6.313
		C246.965,283.235,249.275,285.716,249.275,289.353z M239.841,289.475c0,2.604,1.499,4.569,3.611,4.569
		c2.063,0,3.611-1.94,3.611-4.618c0-2.015-1.007-4.569-3.563-4.569C240.947,284.856,239.841,287.215,239.841,289.475z"/>
	<path d="M251.999,287.215c0-1.4-0.024-2.604-0.098-3.71h1.892l0.074,2.334h0.098c0.541-1.597,1.842-2.604,3.292-2.604
		c0.246,0,0.417,0.024,0.614,0.073v2.039c-0.221-0.049-0.442-0.073-0.737-0.073c-1.523,0-2.604,1.154-2.899,2.775
		c-0.049,0.295-0.098,0.639-0.098,1.008v6.338h-2.137V287.215z"/>
</g>
<rect x="133.185" y="342.68" fill="#FFFFFF" stroke="#000000" stroke-miterlimit="10" width="158.614" height="64.389"/>
<g enable-background="new    ">
	<path d="M167.888,379.602c0.614,0.394,2.039,1.008,3.538,1.008c2.776,0,3.636-1.77,3.611-3.096
		c-0.025-2.235-2.039-3.193-4.127-3.193h-1.204v-1.622h1.204c1.572,0,3.562-0.811,3.562-2.702c0-1.277-0.811-2.407-2.8-2.407
		c-1.278,0-2.506,0.564-3.194,1.057l-0.565-1.572c0.835-0.614,2.457-1.229,4.176-1.229c3.145,0,4.569,1.867,4.569,3.808
		c0,1.646-0.982,3.046-2.948,3.759v0.049c1.965,0.394,3.562,1.867,3.562,4.103c0,2.556-1.99,4.791-5.822,4.791
		c-1.793,0-3.366-0.565-4.152-1.081L167.888,379.602z"/>
	<path d="M180.659,373.902c0-1.4-0.025-2.604-0.098-3.71h1.892l0.074,2.334h0.098c0.541-1.597,1.842-2.604,3.292-2.604
		c0.246,0,0.417,0.024,0.614,0.073v2.039c-0.221-0.049-0.442-0.073-0.737-0.073c-1.523,0-2.604,1.154-2.899,2.775
		c-0.049,0.295-0.098,0.639-0.098,1.008v6.338h-2.137V373.902z"/>
	<path d="M198.714,364.641v14.371c0,1.057,0.025,2.261,0.099,3.071h-1.941l-0.098-2.063h-0.049
		c-0.663,1.326-2.113,2.334-4.053,2.334c-2.875,0-5.085-2.433-5.085-6.044c-0.024-3.955,2.432-6.387,5.331-6.387
		c1.818,0,3.046,0.859,3.586,1.817h0.049v-7.1H198.714z M196.552,375.032c0-0.271-0.024-0.639-0.098-0.909
		c-0.319-1.375-1.499-2.506-3.12-2.506c-2.235,0-3.562,1.966-3.562,4.595c0,2.407,1.179,4.397,3.513,4.397
		c1.45,0,2.776-0.958,3.169-2.58c0.074-0.295,0.098-0.59,0.098-0.934V375.032z"/>
	<path d="M207.579,365.525h8.917v1.793h-6.78v5.503h6.265v1.769h-6.265v7.493h-2.137V365.525z"/>
	<path d="M219.049,364.641h2.162v17.442h-2.162V364.641z"/>
	<path d="M235.606,376.04c0,4.397-3.046,6.313-5.921,6.313c-3.218,0-5.699-2.358-5.699-6.117c0-3.979,2.604-6.313,5.896-6.313
		C233.296,369.923,235.606,372.403,235.606,376.04z M226.172,376.162c0,2.604,1.499,4.569,3.611,4.569
		c2.063,0,3.611-1.94,3.611-4.618c0-2.015-1.007-4.569-3.563-4.569C227.278,371.544,226.172,373.902,226.172,376.162z"/>
	<path d="M249.09,376.04c0,4.397-3.046,6.313-5.921,6.313c-3.218,0-5.699-2.358-5.699-6.117c0-3.979,2.604-6.313,5.896-6.313
		C246.78,369.923,249.09,372.403,249.09,376.04z M239.656,376.162c0,2.604,1.499,4.569,3.611,4.569c2.063,0,3.611-1.94,3.611-4.618
		c0-2.015-1.007-4.569-3.563-4.569C240.761,371.544,239.656,373.902,239.656,376.162z"/>
	<path d="M251.814,373.902c0-1.4-0.025-2.604-0.098-3.71h1.892l0.074,2.334h0.098c0.541-1.597,1.842-2.604,3.292-2.604
		c0.246,0,0.417,0.024,0.614,0.073v2.039c-0.221-0.049-0.442-0.073-0.737-0.073c-1.523,0-2.604,1.154-2.899,2.775
		c-0.049,0.295-0.098,0.639-0.098,1.008v6.338h-2.137V373.902z"/>
</g>
<rect x="133.185" y="429.367" fill="#FFFFFF" stroke="#000000" stroke-miterlimit="10" width="158.614" height="64.389"/>
<g enable-background="new    ">
	<path d="M164.572,468.771v-1.326l1.695-1.646c4.078-3.882,5.92-5.945,5.945-8.353c0-1.621-0.786-3.12-3.169-3.12
		c-1.45,0-2.653,0.737-3.39,1.352l-0.688-1.523c1.105-0.934,2.678-1.621,4.521-1.621c3.439,0,4.889,2.358,4.889,4.643
		c0,2.948-2.137,5.331-5.503,8.574l-1.278,1.179v0.05h7.174v1.793H164.572z"/>
	<path d="M177.86,460.099c0-1.229-0.025-2.235-0.098-3.219h1.916l0.123,1.966h0.049c0.59-1.13,1.965-2.235,3.931-2.235
		c1.646,0,4.201,0.982,4.201,5.061v7.1h-2.162v-6.854c0-1.916-0.712-3.513-2.751-3.513c-1.425,0-2.53,1.007-2.899,2.211
		c-0.098,0.271-0.147,0.639-0.147,1.008v7.148h-2.162V460.099z"/>
	<path d="M201.76,451.328v14.371c0,1.057,0.025,2.261,0.099,3.071h-1.941l-0.098-2.063h-0.049c-0.663,1.326-2.113,2.334-4.053,2.334
		c-2.875,0-5.085-2.433-5.085-6.044c-0.024-3.955,2.432-6.387,5.331-6.387c1.818,0,3.046,0.859,3.586,1.817h0.049v-7.1H201.76z
		 M199.598,461.72c0-0.271-0.024-0.639-0.098-0.909c-0.319-1.375-1.499-2.506-3.12-2.506c-2.235,0-3.562,1.966-3.562,4.595
		c0,2.407,1.179,4.397,3.513,4.397c1.45,0,2.776-0.958,3.169-2.58c0.074-0.295,0.098-0.59,0.098-0.934V461.72z"/>
	<path d="M210.624,452.213h8.917v1.793h-6.78v5.503h6.265v1.769h-6.265v7.493h-2.137V452.213z"/>
	<path d="M222.094,451.328h2.162v17.442h-2.162V451.328z"/>
	<path d="M238.651,462.728c0,4.397-3.046,6.313-5.921,6.313c-3.218,0-5.699-2.358-5.699-6.117c0-3.979,2.604-6.313,5.896-6.313
		C236.342,456.61,238.651,459.091,238.651,462.728z M229.218,462.85c0,2.604,1.499,4.569,3.611,4.569
		c2.063,0,3.611-1.94,3.611-4.618c0-2.015-1.007-4.569-3.563-4.569C230.323,458.231,229.218,460.59,229.218,462.85z"/>
	<path d="M252.135,462.728c0,4.397-3.046,6.313-5.921,6.313c-3.218,0-5.699-2.358-5.699-6.117c0-3.979,2.604-6.313,5.896-6.313
		C249.826,456.61,252.135,459.091,252.135,462.728z M242.702,462.85c0,2.604,1.499,4.569,3.611,4.569
		c2.063,0,3.611-1.94,3.611-4.618c0-2.015-1.007-4.569-3.563-4.569C243.807,458.231,242.702,460.59,242.702,462.85z"/>
	<path d="M254.86,460.59c0-1.4-0.025-2.604-0.098-3.71h1.892l0.074,2.334h0.098c0.541-1.597,1.842-2.604,3.292-2.604
		c0.246,0,0.417,0.024,0.614,0.073v2.039c-0.221-0.049-0.442-0.073-0.737-0.073c-1.523,0-2.604,1.154-2.899,2.775
		c-0.049,0.295-0.098,0.639-0.098,1.008v6.338h-2.137V460.59z"/>
</g>
<rect x="133.185" y="516.057" fill="#FFFFFF" stroke="#000000" stroke-miterlimit="10" width="158.614" height="64.391"/>
<g enable-background="new    ">
	<path d="M174.077,541.505h-0.049l-2.776,1.499l-0.418-1.646l3.489-1.867h1.842v15.969h-2.088V541.505z"/>
	<path d="M182.377,553.248c0.639,0.418,1.769,0.859,2.85,0.859c1.572,0,2.31-0.786,2.31-1.769c0-1.031-0.614-1.597-2.211-2.187
		c-2.138-0.762-3.145-1.94-3.145-3.365c0-1.916,1.547-3.488,4.103-3.488c1.204,0,2.26,0.344,2.923,0.736l-0.541,1.572
		c-0.467-0.295-1.327-0.688-2.432-0.688c-1.277,0-1.99,0.737-1.99,1.621c0,0.983,0.712,1.425,2.26,2.015
		c2.063,0.786,3.12,1.818,3.12,3.587c0,2.088-1.621,3.587-4.446,3.587c-1.302,0-2.506-0.344-3.341-0.836L182.377,553.248z"/>
	<path d="M195.003,540.719v2.85h3.095v1.646h-3.095v6.412c0,1.474,0.417,2.309,1.622,2.309c0.589,0,0.933-0.049,1.252-0.147
		l0.099,1.622c-0.418,0.172-1.081,0.319-1.917,0.319c-1.007,0-1.818-0.344-2.333-0.934c-0.614-0.639-0.835-1.695-0.835-3.096v-6.485
		h-1.842v-1.646h1.842v-2.187L195.003,540.719z"/>
	<path d="M205.809,538.901h8.917v1.793h-6.78v5.503h6.265v1.769h-6.265v7.493h-2.137V538.901z"/>
	<path d="M217.279,538.017h2.162v17.442h-2.162V538.017z"/>
	<path d="M233.836,549.416c0,4.397-3.046,6.313-5.921,6.313c-3.218,0-5.699-2.358-5.699-6.117c0-3.979,2.604-6.313,5.896-6.313
		C231.526,543.299,233.836,545.779,233.836,549.416z M224.402,549.538c0,2.604,1.499,4.569,3.611,4.569
		c2.063,0,3.611-1.94,3.611-4.618c0-2.015-1.007-4.569-3.563-4.569C225.508,544.92,224.402,547.278,224.402,549.538z"/>
	<path d="M247.32,549.416c0,4.397-3.046,6.313-5.921,6.313c-3.218,0-5.699-2.358-5.699-6.117c0-3.979,2.604-6.313,5.896-6.313
		C245.01,543.299,247.32,545.779,247.32,549.416z M237.886,549.538c0,2.604,1.499,4.569,3.611,4.569c2.063,0,3.611-1.94,3.611-4.618
		c0-2.015-1.007-4.569-3.563-4.569C238.992,544.92,237.886,547.278,237.886,549.538z"/>
	<path d="M250.044,547.278c0-1.4-0.024-2.604-0.098-3.71h1.892l0.074,2.334h0.098c0.541-1.597,1.842-2.604,3.292-2.604
		c0.246,0,0.417,0.024,0.614,0.073v2.039c-0.221-0.049-0.442-0.073-0.737-0.073c-1.523,0-2.604,1.154-2.899,2.775
		c-0.049,0.295-0.098,0.639-0.098,1.008v6.338h-2.137V547.278z"/>
</g>
<rect x="133.185" y="602.744" fill="#FFFFFF" stroke="#000000" stroke-miterlimit="10" width="158.614" height="64.387"/>
<g enable-background="new    ">
	<path d="M158.778,641.409c-0.958,0.345-2.85,0.909-5.085,0.909c-2.505,0-4.569-0.639-6.19-2.187
		c-1.425-1.376-2.31-3.587-2.31-6.166c0.025-4.938,3.415-8.549,8.967-8.549c1.917,0,3.415,0.417,4.127,0.761l-0.516,1.745
		c-0.884-0.394-1.99-0.713-3.66-0.713c-4.029,0-6.658,2.506-6.658,6.657c0,4.201,2.53,6.683,6.387,6.683
		c1.4,0,2.358-0.196,2.85-0.442v-4.938h-3.366v-1.72h5.454V641.409z"/>
	<path d="M161.968,633.966c0-1.4-0.024-2.604-0.098-3.71h1.892l0.074,2.334h0.098c0.541-1.597,1.842-2.604,3.292-2.604
		c0.246,0,0.417,0.024,0.614,0.073v2.039c-0.221-0.049-0.442-0.073-0.737-0.073c-1.523,0-2.604,1.154-2.899,2.775
		c-0.049,0.295-0.098,0.639-0.098,1.008v6.338h-2.137V633.966z"/>
	<path d="M180.514,636.104c0,4.397-3.046,6.313-5.921,6.313c-3.218,0-5.699-2.358-5.699-6.117c0-3.979,2.604-6.313,5.896-6.313
		C178.205,629.986,180.514,632.467,180.514,636.104z M171.081,636.226c0,2.604,1.499,4.569,3.611,4.569
		c2.063,0,3.611-1.94,3.611-4.618c0-2.015-1.007-4.569-3.563-4.569C172.186,631.607,171.081,633.966,171.081,636.226z"/>
	<path d="M193.187,638.903c0,1.229,0.025,2.31,0.099,3.243h-1.917l-0.123-1.94h-0.049c-0.565,0.958-1.818,2.211-3.931,2.211
		c-1.867,0-4.103-1.032-4.103-5.208v-6.953h2.162v6.584c0,2.261,0.688,3.783,2.653,3.783c1.45,0,2.457-1.007,2.85-1.965
		c0.123-0.319,0.197-0.713,0.197-1.105v-7.297h2.162V638.903z"/>
	<path d="M196.772,633.475c0-1.229-0.024-2.235-0.098-3.219h1.916l0.123,1.966h0.049c0.59-1.13,1.965-2.235,3.931-2.235
		c1.646,0,4.201,0.982,4.201,5.061v7.1h-2.162v-6.854c0-1.916-0.712-3.513-2.751-3.513c-1.425,0-2.53,1.007-2.899,2.211
		c-0.098,0.271-0.147,0.639-0.147,1.008v7.148h-2.162V633.475z"/>
	<path d="M220.672,624.704v14.371c0,1.057,0.025,2.261,0.099,3.071h-1.941l-0.098-2.063h-0.049
		c-0.663,1.326-2.113,2.334-4.053,2.334c-2.875,0-5.085-2.433-5.085-6.044c-0.024-3.955,2.432-6.387,5.331-6.387
		c1.818,0,3.046,0.859,3.586,1.817h0.049v-7.1H220.672z M218.51,635.096c0-0.271-0.024-0.639-0.098-0.909
		c-0.319-1.375-1.499-2.506-3.12-2.506c-2.235,0-3.562,1.966-3.562,4.595c0,2.407,1.179,4.397,3.513,4.397
		c1.45,0,2.776-0.958,3.169-2.58c0.074-0.295,0.098-0.59,0.098-0.934V635.096z"/>
	<path d="M229.536,625.589h8.917v1.793h-6.78v5.503h6.265v1.769h-6.265v7.493h-2.137V625.589z"/>
	<path d="M241.007,624.704h2.162v17.442h-2.162V624.704z"/>
	<path d="M257.563,636.104c0,4.397-3.046,6.313-5.921,6.313c-3.218,0-5.699-2.358-5.699-6.117c0-3.979,2.604-6.313,5.896-6.313
		C255.254,629.986,257.563,632.467,257.563,636.104z M248.13,636.226c0,2.604,1.499,4.569,3.611,4.569
		c2.063,0,3.611-1.94,3.611-4.618c0-2.015-1.007-4.569-3.563-4.569C249.235,631.607,248.13,633.966,248.13,636.226z"/>
	<path d="M271.047,636.104c0,4.397-3.046,6.313-5.921,6.313c-3.218,0-5.699-2.358-5.699-6.117c0-3.979,2.604-6.313,5.896-6.313
		C268.738,629.986,271.047,632.467,271.047,636.104z M261.614,636.226c0,2.604,1.499,4.569,3.611,4.569
		c2.063,0,3.611-1.94,3.611-4.618c0-2.015-1.007-4.569-3.563-4.569C262.719,631.607,261.614,633.966,261.614,636.226z"/>
	<path d="M273.771,633.966c0-1.4-0.025-2.604-0.098-3.71h1.892l0.074,2.334h0.098c0.541-1.597,1.842-2.604,3.292-2.604
		c0.246,0,0.417,0.024,0.614,0.073v2.039c-0.221-0.049-0.442-0.073-0.737-0.073c-1.523,0-2.604,1.154-2.899,2.775
		c-0.049,0.295-0.098,0.639-0.098,1.008v6.338h-2.137V633.966z"/>
</g>
<g id="Edges">
</g>
<use xlink:href="#Node"  width="36" height="36" id="Floor_5" x="-18" y="-18" transform="matrix(1 0 0 -1 323.4924 201.4985)" overflow="visible"/>
<use xlink:href="#Node"  width="36" height="36" id="Floor_4" x="-18" y="-18" transform="matrix(1 0 0 -1 323.4924 288.1865)" overflow="visible" enable-background="new    "/>
<use xlink:href="#Node"  width="36" height="36" id="Floor_3" x="-18" y="-18" transform="matrix(1 0 0 -1 323.4924 374.874)" overflow="visible" enable-background="new    "/>
<use xlink:href="#Node"  width="36" height="36" id="Floor_2" x="-18" y="-18" transform="matrix(1 0 0 -1 323.4924 461.5625)" overflow="visible" enable-background="new    "/>
<use xlink:href="#Node"  width="36" height="36" id="Floor_1" x="-18" y="-18" transform="matrix(1 0 0 -1 323.4924 548.25)" overflow="visible" enable-background="new    "/>
<use xlink:href="#Node"  width="36" height="36" id="Floor_0" x="-18" y="-18" transform="matrix(1 0 0 -1 323.4924 634.9375)" overflow="visible" enable-background="new    "/>
<use xlink:href="#Node"  width="36" height="36" id="Target_5" x="-18" y="-18" transform="matrix(1 0 0 -1 239.4924 201.4985)" overflow="visible" opacity="0" enable-background="new    "/>
<use xlink:href="#Node"  width="36" height="36" id="Target_4" x="-18" y="-18" transform="matrix(1 0 0 -1 239.4924 288.1865)" overflow="visible" opacity="0" enable-background="new    "/>
<use xlink:href="#Node"  width="36" height="36" id="Target_3" x="-18" y="-18" transform="matrix(1 0 0 -1 239.4924 374.874)" overflow="visible" opacity="0" enable-background="new    "/>
<use xlink:href="#Node"  width="36" height="36" id="Target_2" x="-18" y="-18" transform="matrix(1 0 0 -1 239.4924 461.5625)" overflow="visible" opacity="0" enable-background="new    "/>
<use xlink:href="#Node"  width="36" height="36" id="Target_1" x="-18" y="-18" transform="matrix(1 0 0 -1 239.4924 548.25)" overflow="visible" opacity="0" enable-background="new    "/>
<use xlink:href="#Node"  width="36" height="36" id="Target_0" x="-18" y="-18" transform="matrix(1 0 0 -1 239.4924 634.9375)" overflow="visible" opacity="0" enable-background="new    "/>
<rect x="133.308" y="82.616" fill="#FFFFFF" stroke="#000000" stroke-miterlimit="10" width="158.614" height="64.388"/>
<g enable-background="new    ">
	<path d="M151.32,105.683c1.081-0.221,2.628-0.344,4.103-0.344c2.285,0,3.759,0.418,4.791,1.351
		c0.835,0.737,1.302,1.867,1.302,3.145c0,2.187-1.375,3.637-3.12,4.226v0.074c1.277,0.442,2.039,1.621,2.432,3.341
		c0.541,2.31,0.934,3.906,1.277,4.545h-2.211c-0.271-0.491-0.639-1.892-1.105-3.955c-0.492-2.285-1.376-3.145-3.316-3.219h-2.015
		v7.174h-2.137V105.683z M153.457,113.225h2.187c2.285,0,3.734-1.253,3.734-3.145c0-2.138-1.547-3.07-3.808-3.096
		c-1.032,0-1.769,0.099-2.113,0.197V113.225z"/>
	<path d="M175.318,115.977c0,4.397-3.046,6.313-5.921,6.313c-3.218,0-5.699-2.358-5.699-6.117c0-3.979,2.604-6.313,5.896-6.313
		C173.009,109.859,175.318,112.34,175.318,115.977z M165.885,116.099c0,2.604,1.499,4.569,3.611,4.569
		c2.063,0,3.611-1.94,3.611-4.618c0-2.015-1.007-4.569-3.563-4.569C166.99,111.48,165.885,113.839,165.885,116.099z"/>
	<path d="M188.802,115.977c0,4.397-3.046,6.313-5.921,6.313c-3.218,0-5.699-2.358-5.699-6.117c0-3.979,2.604-6.313,5.896-6.313
		C186.493,109.859,188.802,112.34,188.802,115.977z M179.369,116.099c0,2.604,1.499,4.569,3.611,4.569
		c2.063,0,3.611-1.94,3.611-4.618c0-2.015-1.007-4.569-3.563-4.569C180.474,111.48,179.369,113.839,179.369,116.099z"/>
	<path d="M191.748,122.02v-10.244h-1.671v-1.646h1.671v-0.564c0-1.671,0.368-3.194,1.375-4.152c0.811-0.786,1.892-1.105,2.899-1.105
		c0.762,0,1.425,0.172,1.842,0.345l-0.294,1.67c-0.319-0.147-0.762-0.271-1.376-0.271c-1.842,0-2.309,1.622-2.309,3.439v0.639h2.874
		v1.646h-2.874v10.244H191.748z"/>
	<path d="M216.581,121.282c-0.958,0.345-2.85,0.909-5.085,0.909c-2.505,0-4.569-0.639-6.19-2.187
		c-1.425-1.376-2.31-3.587-2.31-6.166c0.025-4.938,3.415-8.549,8.967-8.549c1.917,0,3.415,0.417,4.127,0.761l-0.516,1.745
		c-0.884-0.394-1.99-0.713-3.66-0.713c-4.029,0-6.658,2.506-6.658,6.657c0,4.201,2.53,6.683,6.387,6.683
		c1.4,0,2.358-0.196,2.85-0.442v-4.938h-3.366v-1.72h5.454V121.282z"/>
	<path d="M228.321,119.17c0,1.031,0.049,2.039,0.197,2.85h-1.965l-0.172-1.499h-0.074c-0.663,0.934-1.94,1.77-3.636,1.77
		c-2.407,0-3.636-1.695-3.636-3.415c0-2.874,2.555-4.446,7.149-4.422v-0.246c0-0.982-0.271-2.751-2.703-2.751
		c-1.105,0-2.26,0.344-3.095,0.884l-0.491-1.425c0.982-0.639,2.408-1.056,3.906-1.056c3.636,0,4.52,2.48,4.52,4.864V119.17z
		 M226.233,115.951c-2.358-0.049-5.037,0.369-5.037,2.678c0,1.4,0.934,2.064,2.039,2.064c1.548,0,2.531-0.983,2.875-1.99
		c0.074-0.221,0.123-0.467,0.123-0.688V115.951z"/>
	<path d="M231.807,113.839c0-1.4-0.024-2.604-0.098-3.71h1.892l0.074,2.334h0.098c0.541-1.597,1.842-2.604,3.292-2.604
		c0.246,0,0.417,0.024,0.614,0.073v2.039c-0.221-0.049-0.442-0.073-0.737-0.073c-1.523,0-2.604,1.154-2.899,2.775
		c-0.049,0.295-0.098,0.639-0.098,1.008v6.338h-2.137V113.839z"/>
	<path d="M249.861,104.577v14.371c0,1.057,0.025,2.261,0.099,3.071h-1.941l-0.098-2.063h-0.049
		c-0.663,1.326-2.113,2.334-4.053,2.334c-2.875,0-5.085-2.433-5.085-6.044c-0.024-3.955,2.432-6.387,5.331-6.387
		c1.818,0,3.046,0.859,3.586,1.817h0.049v-7.1H249.861z M247.699,114.969c0-0.271-0.024-0.639-0.098-0.909
		c-0.319-1.375-1.499-2.506-3.12-2.506c-2.235,0-3.562,1.966-3.562,4.595c0,2.407,1.179,4.397,3.513,4.397
		c1.45,0,2.776-0.958,3.169-2.58c0.074-0.295,0.098-0.59,0.098-0.934V114.969z"/>
	<path d="M254.649,116.468c0.049,2.923,1.917,4.127,4.078,4.127c1.548,0,2.481-0.271,3.292-0.614l0.369,1.548
		c-0.762,0.344-2.064,0.762-3.956,0.762c-3.66,0-5.847-2.433-5.847-6.02c0-3.586,2.113-6.411,5.577-6.411
		c3.881,0,4.913,3.414,4.913,5.601c0,0.442-0.049,0.786-0.074,1.008H254.649z M260.988,114.92c0.024-1.376-0.565-3.514-2.997-3.514
		c-2.187,0-3.145,2.015-3.317,3.514H260.988z"/>
	<path d="M265.751,113.348c0-1.229-0.025-2.235-0.098-3.219h1.916l0.123,1.966h0.049c0.59-1.13,1.965-2.235,3.931-2.235
		c1.646,0,4.201,0.982,4.201,5.061v7.1h-2.162v-6.854c0-1.916-0.712-3.513-2.751-3.513c-1.425,0-2.53,1.007-2.899,2.211
		c-0.098,0.271-0.147,0.639-0.147,1.008v7.148h-2.162V113.348z"/>
</g>
<use xlink:href="#Node"  width="36" height="36" id="Floor_6" x="-18" y="-18" transform="matrix(1 0 0 -1 323.6155 114.8105)" overflow="visible" enable-background="new    "/>
<use xlink:href="#Node"  width="36" height="36" id="Target_6" x="-18" y="-18" transform="matrix(1 0 0 -1 239.6165 114.8105)" overflow="visible" opacity="0" enable-background="new    "/>
</svg>
