<?xml version="1.0" encoding="utf-8"?>
<!-- Generator: Adobe Illustrator 16.0.0, SVG Export Plug-In . SVG Version: 6.00 Build 0)  -->
<!DOCTYPE svg PUBLIC "-//W3C//DTD SVG 1.1//EN" "http://www.w3.org/Graphics/SVG/1.1/DTD/svg11.dtd">
<svg version="1.1" id="Layer_1" xmlns="http://www.w3.org/2000/svg" xmlns:xlink="http://www.w3.org/1999/xlink" x="0px" y="0px"
	 width="612px" height="792px" viewBox="0 0 612 792" enable-background="new 0 0 612 792" xml:space="preserve">
<symbol  id="Node" viewBox="-18 -18 36 36">
	<path fill="#FFFFFF" stroke="#010101" stroke-width="6" stroke-miterlimit="10" d="M15,0c0-8.284-6.717-15-15-15
		c-8.285,0-15,6.716-15,15s6.715,15,15,15C8.283,15,15,8.284,15,0z"/>
</symbol>
<rect x="133.185" y="169.304" fill="#FFFFFF" stroke="#000000" stroke-miterlimit="10" width="158.614" height="64.388"/>
<text transform="matrix(1 0 0 1 166.3289 208.708)" font-family="'MyriadPro-Regular'" font-size="24.5616">5th Floor</text>
<rect x="133.185" y="255.992" fill="#FFFFFF" stroke="#000000" stroke-miterlimit="10" width="158.614" height="64.388"/>
<text transform="matrix(1 0 0 1 166.3289 295.3955)" font-family="'MyriadPro-Regular'" font-size="24.5616">4th Floor</text>
<rect x="133.185" y="342.68" fill="#FFFFFF" stroke="#000000" stroke-miterlimit="10" width="158.614" height="64.389"/>
<text transform="matrix(1 0 0 1 166.2664 382.083)" font-family="'MyriadPro-Regular'" font-size="24.5616">3rd Floor</text>
<rect x="133.185" y="429.367" fill="#FFFFFF" stroke="#000000" stroke-miterlimit="10" width="158.614" height="64.389"/>
<text transform="matrix(1 0 0 1 163.4666 468.7705)" font-family="'MyriadPro-Regular'" font-size="24.5616">2nd Floor</text>
<rect x="133.185" y="516.057" fill="#FFFFFF" stroke="#000000" stroke-miterlimit="10" width="158.614" height="64.39"/>
<text transform="matrix(1 0 0 1 168.2795 555.459)" font-family="'MyriadPro-Regular'" font-size="24.5616">1st Floor</text>
<rect x="133.185" y="602.744" fill="#FFFFFF" stroke="#000000" stroke-miterlimit="10" width="158.614" height="64.387"/>
<text transform="matrix(1 0 0 1 144.3079 642.1465)" font-family="'MyriadPro-Regular'" font-size="24.5616">Ground Floor</text>
<g id="Edges">
</g>
<use xlink:href="#Node"  width="36" height="36" id="Floor_5" x="-18" y="-18" transform="matrix(1 0 0 -1 323.4924 201.4985)" overflow="visible"/>
<use xlink:href="#Node"  width="36" height="36" id="Floor_4" x="-18" y="-18" transform="matrix(1 0 0 -1 323.4924 288.1865)" overflow="visible" enable-background="new    "/>
<use xlink:href="#Node"  width="36" height="36" id="Floor_3" x="-18" y="-18" transform="matrix(1 0 0 -1 323.4924 374.874)" overflow="visible" enable-background="new    "/>
<use xlink:href="#Node"  width="36" height="36" id="Floor_2" x="-18" y="-18" transform="matrix(1 0 0 -1 323.4924 461.5625)" overflow="visible" enable-background="new    "/>
<use xlink:href="#Node"  width="36" height="36" id="Floor_1" x="-18" y="-18" transform="matrix(1 0 0 -1 323.4924 548.25)" overflow="visible" enable-background="new    "/>
<use xlink:href="#Node"  width="36" height="36" id="Floor_0" x="-18" y="-18" transform="matrix(1 0 0 -1 323.4924 634.9375)" overflow="visible" enable-background="new    "/>
<use xlink:href="#Node"  width="36" height="36" id="Target_5" x="-18" y="-18" transform="matrix(1 0 0 -1 239.4924 201.4985)" overflow="visible" opacity="0" enable-background="new    "/>
<use xlink:href="#Node"  width="36" height="36" id="Target_4" x="-18" y="-18" transform="matrix(1 0 0 -1 239.4924 288.1865)" overflow="visible" opacity="0" enable-background="new    "/>
<use xlink:href="#Node"  width="36" height="36" id="Target_3" x="-18" y="-18" transform="matrix(1 0 0 -1 239.4924 374.874)" overflow="visible" opacity="0" enable-background="new    "/>
<use xlink:href="#Node"  width="36" height="36" id="Target_2" x="-18" y="-18" transform="matrix(1 0 0 -1 239.4924 461.5625)" overflow="visible" opacity="0" enable-background="new    "/>
<use xlink:href="#Node"  width="36" height="36" id="Target_1" x="-18" y="-18" transform="matrix(1 0 0 -1 239.4924 548.25)" overflow="visible" opacity="0" enable-background="new    "/>
<use xlink:href="#Node"  width="36" height="36" id="Target_0" x="-18" y="-18" transform="matrix(1 0 0 -1 239.4924 634.9375)" overflow="visible" opacity="0" enable-background="new    "/>
<rect x="133.308" y="82.616" fill="#FFFFFF" stroke="#000000" stroke-miterlimit="10" width="158.614" height="64.388"/>
<text transform="matrix(1 0 0 1 149.4524 122.0195)" font-family="'MyriadPro-Regular'" font-size="24.5616">Roof Garden</text>
<use xlink:href="#Node"  width="36" height="36" id="Floor_6" x="-18" y="-18" transform="matrix(1 0 0 -1 323.6155 114.8105)" overflow="visible" enable-background="new    "/>
<use xlink:href="#Node"  width="36" height="36" id="Target_6" x="-18" y="-18" transform="matrix(1 0 0 -1 239.6165 114.8105)" overflow="visible" opacity="0" enable-background="new    "/>
</svg>
