<?xml version="1.0" encoding="iso-8859-1"?>
<!-- Generator: Adobe Illustrator 16.0.0, SVG Export Plug-In . SVG Version: 6.00 Build 0)  -->
<!DOCTYPE svg PUBLIC "-//W3C//DTD SVG 1.1//EN" "http://www.w3.org/Graphics/SVG/1.1/DTD/svg11.dtd">
<svg version="1.1" id="Capa_1" xmlns="http://www.w3.org/2000/svg" xmlns:xlink="http://www.w3.org/1999/xlink" x="0px" y="0px"
	 width="516.375px" height="516.375px" viewBox="0 0 516.375 516.375" style="enable-background:new 0 0 516.375 516.375;"
	 xml:space="preserve">
<g>
	<g>
		<polygon points="487.688,310.781 487.688,272.531 449.438,272.531 363.758,272.531 325.125,310.781 428.792,310.781 
			345.789,393.784 368.931,416.925 449.438,336.418 449.438,435.094 487.688,396.461 		"/>
		<polygon points="124.312,377.719 219.938,377.719 219.938,282.094 315.562,282.094 315.562,176.906 420.75,176.906 420.75,81.281 
			516.375,81.281 516.375,43.031 382.5,43.031 382.5,138.656 277.312,138.656 277.312,243.844 181.688,243.844 181.688,339.469 
			86.062,339.469 86.062,435.094 0,435.094 0,473.344 124.312,473.344 		"/>
	</g>
</g>
<g>
</g>
<g>
</g>
<g>
</g>
<g>
</g>
<g>
</g>
<g>
</g>
<g>
</g>
<g>
</g>
<g>
</g>
<g>
</g>
<g>
</g>
<g>
</g>
<g>
</g>
<g>
</g>
<g>
</g>
</svg>
