<?xml version="1.0" encoding="utf-8"?>
<!-- Generator: Adobe Illustrator 16.0.0, SVG Export Plug-In . SVG Version: 6.00 Build 0)  -->
<!DOCTYPE svg PUBLIC "-//W3C//DTD SVG 1.1//EN" "http://www.w3.org/Graphics/SVG/1.1/DTD/svg11.dtd">
<svg version="1.1" id="Capa_1" xmlns="http://www.w3.org/2000/svg" xmlns:xlink="http://www.w3.org/1999/xlink" x="0px" y="0px"
	 width="516.375px" height="516.375px" viewBox="0 0 516.375 516.375" enable-background="new 0 0 516.375 516.375"
	 xml:space="preserve">
<g>
	<g>
		<polygon points="325.125,396.844 325.125,435.094 363.375,435.094 449.055,435.094 487.688,396.844 384.021,396.844 
			467.023,313.841 443.882,290.7 363.375,371.207 363.375,272.531 325.125,311.164 		"/>
		<polygon points="124.312,377.719 219.938,377.719 219.938,282.094 315.563,282.094 315.563,176.906 420.75,176.906 420.75,81.281 
			516.375,81.281 516.375,43.031 382.5,43.031 382.5,138.656 277.313,138.656 277.313,243.844 181.688,243.844 181.688,339.469 
			86.062,339.469 86.062,435.094 0,435.094 0,473.344 124.312,473.344 		"/>
	</g>
</g>
</svg>
